M48
;DRILL file {KiCad (5.0.0-rc2-dev-179-gab3780148)} date 03/14/18 15:03:51
;FORMAT={-:-/ absolute / inch / decimal}
FMAT,2
INCH,TZ
T1C0.0200
T2C0.0315
T3C0.0394
T4C0.0402
T5C0.0472
T6C0.1181
%
G90
G05
M72
T1
X2.02Y-3.7
X3.14Y-2.22
X3.34Y-2.22
T2
X4.36Y-2.6
X3.45Y-2.375
X3.85Y-2.375
X4.36Y-3.
X4.36Y-3.22
X4.36Y-3.62
X4.58Y-3.08
X4.58Y-3.48
T3
X2.35Y-2.6
X2.35Y-2.7
X2.35Y-2.8
X2.35Y-2.9
X2.35Y-3.
X2.35Y-3.1
X2.35Y-3.2
X2.35Y-3.3
X2.35Y-3.4
X2.35Y-3.5
X2.35Y-3.6
X2.35Y-3.7
X3.7Y-3.8
X3.7Y-3.9
X3.7Y-4.
X3.7Y-4.1
X3.7Y-4.2
X3.7Y-4.3
X2.35Y-3.8
X2.35Y-3.9
X2.35Y-4.
X2.35Y-4.1
X2.35Y-4.2
X2.35Y-4.3
X3.45Y-2.6
X3.45Y-2.7
X3.45Y-2.8
X3.45Y-2.9
X3.45Y-3.
X3.45Y-3.1
X3.45Y-3.2
X3.45Y-3.3
X3.45Y-3.4
X3.45Y-3.5
X3.45Y-3.6
X3.45Y-3.7
X3.45Y-3.8
X3.45Y-3.9
X3.45Y-4.
X3.45Y-4.1
X3.45Y-4.2
X3.45Y-4.3
T4
X2.55Y-2.6
X2.55Y-2.7
X2.55Y-2.8
X2.55Y-2.9
X2.55Y-3.
X2.55Y-3.1
X2.55Y-3.2
X2.55Y-3.3
X2.55Y-3.4
X2.55Y-3.5
X2.55Y-3.6
X2.55Y-3.7
X2.55Y-3.8
X2.55Y-3.9
X2.55Y-4.
X2.55Y-4.1
X2.55Y-4.2
X2.55Y-4.3
X3.25Y-2.6
X3.25Y-2.7
X3.25Y-2.8
X3.25Y-2.9
X3.25Y-3.
X3.25Y-3.1
X3.25Y-3.2
X3.25Y-3.3
X3.25Y-3.4
X3.25Y-3.5
X3.25Y-3.6
X3.25Y-3.7
X3.25Y-3.8
X3.25Y-3.9
X3.25Y-4.
X3.25Y-4.1
X3.25Y-4.2
X3.25Y-4.3
T5
X1.95Y-2.4
X1.95Y-2.5378
X1.95Y-2.6756
X1.95Y-2.8134
X5.025Y-2.5
X5.025Y-2.6378
X5.025Y-2.7756
X5.025Y-2.9134
X3.3Y-2.
X3.4378Y-2.
X3.5756Y-2.
X3.7134Y-2.
X5.02Y-3.14
X5.02Y-3.2778
X5.02Y-3.4156
X5.02Y-3.5534
X4.1Y-2.
X4.2378Y-2.
X4.3756Y-2.
X4.5134Y-2.
X2.5Y-2.
X2.6378Y-2.
X2.7756Y-2.
X2.9134Y-2.
T6
X5.Y-2.
X2.Y-4.5
X2.Y-2.
X5.Y-4.5
T0
M30
