G04 #@! TF.GenerationSoftware,KiCad,Pcbnew,(5.0.0-rc2-dev-179-gab3780148)*
G04 #@! TF.CreationDate,2018-03-14T15:03:31-05:00*
G04 #@! TF.ProjectId,weather_station,776561746865725F73746174696F6E2E,rev?*
G04 #@! TF.SameCoordinates,Original*
G04 #@! TF.FileFunction,Copper,L1,Top,Signal*
G04 #@! TF.FilePolarity,Positive*
%FSLAX46Y46*%
G04 Gerber Fmt 4.6, Leading zero omitted, Abs format (unit mm)*
G04 Created by KiCad (PCBNEW (5.0.0-rc2-dev-179-gab3780148)) date 03/14/18 15:03:31*
%MOMM*%
%LPD*%
G01*
G04 APERTURE LIST*
%ADD10R,1.700000X1.700000*%
%ADD11O,1.700000X1.700000*%
%ADD12R,2.400000X2.400000*%
%ADD13C,2.400000*%
%ADD14C,6.000000*%
%ADD15C,1.600000*%
%ADD16O,1.600000X1.600000*%
%ADD17C,1.900000*%
%ADD18C,0.889000*%
%ADD19C,0.635000*%
%ADD20C,0.304800*%
G04 APERTURE END LIST*
D10*
X87630000Y-66040000D03*
D11*
X87630000Y-68580000D03*
X87630000Y-71120000D03*
X87630000Y-73660000D03*
X87630000Y-76200000D03*
X87630000Y-78740000D03*
X87630000Y-81280000D03*
X87630000Y-83820000D03*
X87630000Y-86360000D03*
X87630000Y-88900000D03*
X87630000Y-91440000D03*
X87630000Y-93980000D03*
X87630000Y-96520000D03*
X87630000Y-99060000D03*
X87630000Y-101600000D03*
X87630000Y-104140000D03*
X87630000Y-106680000D03*
X87630000Y-109220000D03*
D12*
X127635000Y-63500000D03*
D13*
X127635000Y-67000000D03*
X127635000Y-70500000D03*
X127635000Y-74000000D03*
D12*
X49530000Y-60960000D03*
D13*
X49530000Y-64460000D03*
X49530000Y-67960000D03*
X49530000Y-71460000D03*
D10*
X59690000Y-66040000D03*
D11*
X59690000Y-68580000D03*
X59690000Y-71120000D03*
X59690000Y-73660000D03*
X59690000Y-76200000D03*
X59690000Y-78740000D03*
X59690000Y-81280000D03*
X59690000Y-83820000D03*
X59690000Y-86360000D03*
X59690000Y-88900000D03*
X59690000Y-91440000D03*
X59690000Y-93980000D03*
X59690000Y-96520000D03*
X59690000Y-99060000D03*
X59690000Y-101600000D03*
X59690000Y-104140000D03*
X59690000Y-106680000D03*
X59690000Y-109220000D03*
D12*
X63500000Y-50800000D03*
D13*
X67000000Y-50800000D03*
X70500000Y-50800000D03*
X74000000Y-50800000D03*
D12*
X83820000Y-50800000D03*
D13*
X87320000Y-50800000D03*
X90820000Y-50800000D03*
X94320000Y-50800000D03*
D12*
X104140000Y-50800000D03*
D13*
X107640000Y-50800000D03*
X111140000Y-50800000D03*
X114640000Y-50800000D03*
D14*
X127000000Y-114300000D03*
X50800000Y-114300000D03*
X50800000Y-50800000D03*
X127000000Y-50800000D03*
D15*
X116332000Y-78232000D03*
D16*
X116332000Y-88392000D03*
D15*
X110744000Y-91948000D03*
D16*
X110744000Y-81788000D03*
D15*
X110744000Y-76200000D03*
D16*
X110744000Y-66040000D03*
D15*
X87630000Y-60325000D03*
D16*
X97790000Y-60325000D03*
D10*
X93980000Y-96520000D03*
D11*
X93980000Y-99060000D03*
X93980000Y-101600000D03*
X93980000Y-104140000D03*
X93980000Y-106680000D03*
X93980000Y-109220000D03*
D17*
X64770000Y-66040000D03*
X64770000Y-68580000D03*
X64770000Y-71120000D03*
X64770000Y-73660000D03*
X64770000Y-76200000D03*
X64770000Y-78740000D03*
X64770000Y-81280000D03*
X64770000Y-83820000D03*
X64770000Y-86360000D03*
X64770000Y-88900000D03*
X64770000Y-91440000D03*
X64770000Y-93980000D03*
X64770000Y-96520000D03*
X64770000Y-99060000D03*
X64770000Y-101600000D03*
X64770000Y-104140000D03*
X64770000Y-106680000D03*
X64770000Y-109220000D03*
X82550000Y-66040000D03*
X82550000Y-68580000D03*
X82550000Y-71120000D03*
X82550000Y-73660000D03*
X82550000Y-76200000D03*
X82550000Y-78740000D03*
X82550000Y-81280000D03*
X82550000Y-83820000D03*
X82550000Y-86360000D03*
X82550000Y-88900000D03*
X82550000Y-91440000D03*
X82550000Y-93980000D03*
X82550000Y-96520000D03*
X82550000Y-99060000D03*
X82550000Y-101600000D03*
X82550000Y-104140000D03*
X82550000Y-106680000D03*
X82550000Y-109220000D03*
D12*
X127508000Y-79756000D03*
D13*
X127508000Y-83256000D03*
X127508000Y-86756000D03*
X127508000Y-90256000D03*
D18*
X51308000Y-93980000D03*
X79756000Y-56388000D03*
X84836000Y-56388000D03*
D19*
X51308000Y-93980000D02*
X59690000Y-93980000D01*
X84836000Y-56388000D02*
X79756000Y-56388000D01*
D20*
G36*
X133197600Y-120497600D02*
X44602400Y-120497600D01*
X44602400Y-115024904D01*
X47138966Y-115024904D01*
X47695055Y-116370741D01*
X48723843Y-117401326D01*
X50068707Y-117959763D01*
X51524904Y-117961034D01*
X52870741Y-117404945D01*
X53901326Y-116376157D01*
X54459763Y-115031293D01*
X54459768Y-115024904D01*
X123338966Y-115024904D01*
X123895055Y-116370741D01*
X124923843Y-117401326D01*
X126268707Y-117959763D01*
X127724904Y-117961034D01*
X129070741Y-117404945D01*
X130101326Y-116376157D01*
X130659763Y-115031293D01*
X130661034Y-113575096D01*
X130104945Y-112229259D01*
X129076157Y-111198674D01*
X127731293Y-110640237D01*
X126275096Y-110638966D01*
X124929259Y-111195055D01*
X123898674Y-112223843D01*
X123340237Y-113568707D01*
X123338966Y-115024904D01*
X54459768Y-115024904D01*
X54461034Y-113575096D01*
X53904945Y-112229259D01*
X52876157Y-111198674D01*
X51531293Y-110640237D01*
X50075096Y-110638966D01*
X48729259Y-111195055D01*
X47698674Y-112223843D01*
X47140237Y-113568707D01*
X47138966Y-115024904D01*
X44602400Y-115024904D01*
X44602400Y-94198814D01*
X50202909Y-94198814D01*
X50370765Y-94605058D01*
X50681307Y-94916142D01*
X51087258Y-95084708D01*
X51526814Y-95085091D01*
X51834641Y-94957900D01*
X58532184Y-94957900D01*
X58592396Y-95048014D01*
X58894689Y-95250000D01*
X58592396Y-95451986D01*
X58264982Y-95941995D01*
X58150010Y-96520000D01*
X58264982Y-97098005D01*
X58592396Y-97588014D01*
X58894689Y-97790000D01*
X58592396Y-97991986D01*
X58264982Y-98481995D01*
X58150010Y-99060000D01*
X58264982Y-99638005D01*
X58592396Y-100128014D01*
X58894689Y-100330000D01*
X58592396Y-100531986D01*
X58264982Y-101021995D01*
X58150010Y-101600000D01*
X58264982Y-102178005D01*
X58592396Y-102668014D01*
X58894689Y-102870000D01*
X58592396Y-103071986D01*
X58264982Y-103561995D01*
X58150010Y-104140000D01*
X58264982Y-104718005D01*
X58592396Y-105208014D01*
X58894689Y-105410000D01*
X58592396Y-105611986D01*
X58264982Y-106101995D01*
X58150010Y-106680000D01*
X58264982Y-107258005D01*
X58592396Y-107748014D01*
X58894689Y-107950000D01*
X58592396Y-108151986D01*
X58264982Y-108641995D01*
X58150010Y-109220000D01*
X58264982Y-109798005D01*
X58592396Y-110288014D01*
X59082405Y-110615428D01*
X59660410Y-110730400D01*
X59719590Y-110730400D01*
X60297595Y-110615428D01*
X60787604Y-110288014D01*
X61115018Y-109798005D01*
X61229990Y-109220000D01*
X61115018Y-108641995D01*
X60787604Y-108151986D01*
X60485311Y-107950000D01*
X60787604Y-107748014D01*
X61115018Y-107258005D01*
X61229990Y-106680000D01*
X61115018Y-106101995D01*
X60787604Y-105611986D01*
X60485311Y-105410000D01*
X60787604Y-105208014D01*
X61115018Y-104718005D01*
X61229990Y-104140000D01*
X61115018Y-103561995D01*
X60787604Y-103071986D01*
X60485311Y-102870000D01*
X60787604Y-102668014D01*
X61115018Y-102178005D01*
X61229990Y-101600000D01*
X61115018Y-101021995D01*
X60787604Y-100531986D01*
X60485311Y-100330000D01*
X60787604Y-100128014D01*
X61115018Y-99638005D01*
X61229990Y-99060000D01*
X61115018Y-98481995D01*
X60787604Y-97991986D01*
X60485311Y-97790000D01*
X60787604Y-97588014D01*
X61115018Y-97098005D01*
X61229990Y-96520000D01*
X61115018Y-95941995D01*
X60787604Y-95451986D01*
X60485311Y-95250000D01*
X60787604Y-95048014D01*
X61115018Y-94558005D01*
X61229990Y-93980000D01*
X61115018Y-93401995D01*
X60787604Y-92911986D01*
X60485311Y-92710000D01*
X60787604Y-92508014D01*
X61115018Y-92018005D01*
X61229990Y-91440000D01*
X61115018Y-90861995D01*
X60787604Y-90371986D01*
X60485311Y-90170000D01*
X60787604Y-89968014D01*
X61115018Y-89478005D01*
X61229990Y-88900000D01*
X61115018Y-88321995D01*
X60787604Y-87831986D01*
X60485311Y-87630000D01*
X60787604Y-87428014D01*
X61115018Y-86938005D01*
X61229990Y-86360000D01*
X61115018Y-85781995D01*
X60787604Y-85291986D01*
X60485311Y-85090000D01*
X60787604Y-84888014D01*
X61115018Y-84398005D01*
X61229990Y-83820000D01*
X61115018Y-83241995D01*
X60787604Y-82751986D01*
X60485311Y-82550000D01*
X60787604Y-82348014D01*
X61115018Y-81858005D01*
X61229990Y-81280000D01*
X61115018Y-80701995D01*
X60787604Y-80211986D01*
X60485311Y-80010000D01*
X60787604Y-79808014D01*
X61115018Y-79318005D01*
X61229990Y-78740000D01*
X61115018Y-78161995D01*
X60787604Y-77671986D01*
X60485311Y-77470000D01*
X60787604Y-77268014D01*
X61115018Y-76778005D01*
X61229990Y-76200000D01*
X61115018Y-75621995D01*
X60787604Y-75131986D01*
X60485311Y-74930000D01*
X60787604Y-74728014D01*
X61115018Y-74238005D01*
X61229990Y-73660000D01*
X61115018Y-73081995D01*
X60787604Y-72591986D01*
X60485311Y-72390000D01*
X60787604Y-72188014D01*
X61115018Y-71698005D01*
X61166552Y-71438923D01*
X63159321Y-71438923D01*
X63403973Y-72031027D01*
X63762549Y-72390229D01*
X63405565Y-72746590D01*
X63159880Y-73338266D01*
X63159321Y-73978923D01*
X63403973Y-74571027D01*
X63762549Y-74930229D01*
X63405565Y-75286590D01*
X63159880Y-75878266D01*
X63159321Y-76518923D01*
X63403973Y-77111027D01*
X63762549Y-77470229D01*
X63405565Y-77826590D01*
X63159880Y-78418266D01*
X63159321Y-79058923D01*
X63403973Y-79651027D01*
X63762549Y-80010229D01*
X63405565Y-80366590D01*
X63159880Y-80958266D01*
X63159321Y-81598923D01*
X63403973Y-82191027D01*
X63762549Y-82550229D01*
X63405565Y-82906590D01*
X63159880Y-83498266D01*
X63159321Y-84138923D01*
X63403973Y-84731027D01*
X63762549Y-85090229D01*
X63405565Y-85446590D01*
X63159880Y-86038266D01*
X63159321Y-86678923D01*
X63403973Y-87271027D01*
X63762549Y-87630229D01*
X63405565Y-87986590D01*
X63159880Y-88578266D01*
X63159321Y-89218923D01*
X63403973Y-89811027D01*
X63762549Y-90170229D01*
X63405565Y-90526590D01*
X63159880Y-91118266D01*
X63159321Y-91758923D01*
X63403973Y-92351027D01*
X63762549Y-92710229D01*
X63405565Y-93066590D01*
X63159880Y-93658266D01*
X63159321Y-94298923D01*
X63403973Y-94891027D01*
X63762549Y-95250229D01*
X63405565Y-95606590D01*
X63159880Y-96198266D01*
X63159321Y-96838923D01*
X63403973Y-97431027D01*
X63762549Y-97790229D01*
X63405565Y-98146590D01*
X63159880Y-98738266D01*
X63159321Y-99378923D01*
X63403973Y-99971027D01*
X63762549Y-100330229D01*
X63405565Y-100686590D01*
X63159880Y-101278266D01*
X63159321Y-101918923D01*
X63403973Y-102511027D01*
X63762549Y-102870229D01*
X63405565Y-103226590D01*
X63159880Y-103818266D01*
X63159321Y-104458923D01*
X63403973Y-105051027D01*
X63762549Y-105410229D01*
X63405565Y-105766590D01*
X63159880Y-106358266D01*
X63159321Y-106998923D01*
X63403973Y-107591027D01*
X63762549Y-107950229D01*
X63405565Y-108306590D01*
X63159880Y-108898266D01*
X63159321Y-109538923D01*
X63403973Y-110131027D01*
X63856590Y-110584435D01*
X64448266Y-110830120D01*
X65088923Y-110830679D01*
X65681027Y-110586027D01*
X65887600Y-110379814D01*
X65887600Y-113665000D01*
X65898023Y-113720391D01*
X65930758Y-113771264D01*
X65980708Y-113805393D01*
X66040000Y-113817400D01*
X81280000Y-113817400D01*
X81335391Y-113806977D01*
X81386264Y-113774242D01*
X81420393Y-113724292D01*
X81432400Y-113665000D01*
X81432400Y-110379888D01*
X81636590Y-110584435D01*
X82228266Y-110830120D01*
X82868923Y-110830679D01*
X83461027Y-110586027D01*
X83914435Y-110133410D01*
X84160120Y-109541734D01*
X84160679Y-108901077D01*
X83916027Y-108308973D01*
X83557451Y-107949771D01*
X83914435Y-107593410D01*
X84160120Y-107001734D01*
X84160679Y-106361077D01*
X83916027Y-105768973D01*
X83557451Y-105409771D01*
X83914435Y-105053410D01*
X84160120Y-104461734D01*
X84160679Y-103821077D01*
X83916027Y-103228973D01*
X83557451Y-102869771D01*
X83914435Y-102513410D01*
X84160120Y-101921734D01*
X84160679Y-101281077D01*
X83916027Y-100688973D01*
X83557451Y-100329771D01*
X83914435Y-99973410D01*
X84160120Y-99381734D01*
X84160679Y-98741077D01*
X83916027Y-98148973D01*
X83557451Y-97789771D01*
X83914435Y-97433410D01*
X84160120Y-96841734D01*
X84160679Y-96201077D01*
X83916027Y-95608973D01*
X83557451Y-95249771D01*
X83914435Y-94893410D01*
X84160120Y-94301734D01*
X84160679Y-93661077D01*
X83916027Y-93068973D01*
X83557451Y-92709771D01*
X83914435Y-92353410D01*
X84160120Y-91761734D01*
X84160679Y-91121077D01*
X83916027Y-90528973D01*
X83557451Y-90169771D01*
X83914435Y-89813410D01*
X84160120Y-89221734D01*
X84160679Y-88581077D01*
X83916027Y-87988973D01*
X83557451Y-87629771D01*
X83914435Y-87273410D01*
X84160120Y-86681734D01*
X84160679Y-86041077D01*
X83916027Y-85448973D01*
X83557451Y-85089771D01*
X83914435Y-84733410D01*
X84160120Y-84141734D01*
X84160679Y-83501077D01*
X83916027Y-82908973D01*
X83557451Y-82549771D01*
X83914435Y-82193410D01*
X84160120Y-81601734D01*
X84160679Y-80961077D01*
X83916027Y-80368973D01*
X83557451Y-80009771D01*
X83914435Y-79653410D01*
X84160120Y-79061734D01*
X84160679Y-78421077D01*
X83916027Y-77828973D01*
X83557451Y-77469771D01*
X83914435Y-77113410D01*
X84160120Y-76521734D01*
X84160400Y-76200000D01*
X86090010Y-76200000D01*
X86204982Y-76778005D01*
X86532396Y-77268014D01*
X86834689Y-77470000D01*
X86532396Y-77671986D01*
X86204982Y-78161995D01*
X86090010Y-78740000D01*
X86204982Y-79318005D01*
X86532396Y-79808014D01*
X86834689Y-80010000D01*
X86532396Y-80211986D01*
X86204982Y-80701995D01*
X86090010Y-81280000D01*
X86204982Y-81858005D01*
X86532396Y-82348014D01*
X86834689Y-82550000D01*
X86532396Y-82751986D01*
X86204982Y-83241995D01*
X86090010Y-83820000D01*
X86204982Y-84398005D01*
X86532396Y-84888014D01*
X86834689Y-85090000D01*
X86532396Y-85291986D01*
X86204982Y-85781995D01*
X86090010Y-86360000D01*
X86204982Y-86938005D01*
X86532396Y-87428014D01*
X86834689Y-87630000D01*
X86532396Y-87831986D01*
X86204982Y-88321995D01*
X86090010Y-88900000D01*
X86204982Y-89478005D01*
X86532396Y-89968014D01*
X86834689Y-90170000D01*
X86532396Y-90371986D01*
X86204982Y-90861995D01*
X86090010Y-91440000D01*
X86204982Y-92018005D01*
X86532396Y-92508014D01*
X86834689Y-92710000D01*
X86532396Y-92911986D01*
X86204982Y-93401995D01*
X86090010Y-93980000D01*
X86204982Y-94558005D01*
X86532396Y-95048014D01*
X86834689Y-95250000D01*
X86532396Y-95451986D01*
X86204982Y-95941995D01*
X86090010Y-96520000D01*
X86204982Y-97098005D01*
X86532396Y-97588014D01*
X86834689Y-97790000D01*
X86532396Y-97991986D01*
X86204982Y-98481995D01*
X86090010Y-99060000D01*
X86204982Y-99638005D01*
X86532396Y-100128014D01*
X86834689Y-100330000D01*
X86532396Y-100531986D01*
X86204982Y-101021995D01*
X86090010Y-101600000D01*
X86204982Y-102178005D01*
X86532396Y-102668014D01*
X86834689Y-102870000D01*
X86532396Y-103071986D01*
X86204982Y-103561995D01*
X86090010Y-104140000D01*
X86204982Y-104718005D01*
X86532396Y-105208014D01*
X86834689Y-105410000D01*
X86532396Y-105611986D01*
X86204982Y-106101995D01*
X86090010Y-106680000D01*
X86204982Y-107258005D01*
X86532396Y-107748014D01*
X86834689Y-107950000D01*
X86532396Y-108151986D01*
X86204982Y-108641995D01*
X86090010Y-109220000D01*
X86204982Y-109798005D01*
X86532396Y-110288014D01*
X87022405Y-110615428D01*
X87600410Y-110730400D01*
X87659590Y-110730400D01*
X88237595Y-110615428D01*
X88727604Y-110288014D01*
X89055018Y-109798005D01*
X89103137Y-109556093D01*
X92507468Y-109556093D01*
X92701103Y-110023589D01*
X93105973Y-110451832D01*
X93643906Y-110692540D01*
X93878400Y-110561887D01*
X93878400Y-109321600D01*
X94081600Y-109321600D01*
X94081600Y-110561887D01*
X94316094Y-110692540D01*
X94854027Y-110451832D01*
X95258897Y-110023589D01*
X95452532Y-109556093D01*
X95321458Y-109321600D01*
X94081600Y-109321600D01*
X93878400Y-109321600D01*
X92638542Y-109321600D01*
X92507468Y-109556093D01*
X89103137Y-109556093D01*
X89169990Y-109220000D01*
X89055018Y-108641995D01*
X88727604Y-108151986D01*
X88425311Y-107950000D01*
X88727604Y-107748014D01*
X89055018Y-107258005D01*
X89103137Y-107016093D01*
X92507468Y-107016093D01*
X92701103Y-107483589D01*
X93105973Y-107911832D01*
X93191271Y-107950000D01*
X93105973Y-107988168D01*
X92701103Y-108416411D01*
X92507468Y-108883907D01*
X92638542Y-109118400D01*
X93878400Y-109118400D01*
X93878400Y-106781600D01*
X94081600Y-106781600D01*
X94081600Y-109118400D01*
X95321458Y-109118400D01*
X95452532Y-108883907D01*
X95258897Y-108416411D01*
X94854027Y-107988168D01*
X94768729Y-107950000D01*
X94854027Y-107911832D01*
X95258897Y-107483589D01*
X95452532Y-107016093D01*
X95321458Y-106781600D01*
X94081600Y-106781600D01*
X93878400Y-106781600D01*
X92638542Y-106781600D01*
X92507468Y-107016093D01*
X89103137Y-107016093D01*
X89169990Y-106680000D01*
X89055018Y-106101995D01*
X88727604Y-105611986D01*
X88425311Y-105410000D01*
X88727604Y-105208014D01*
X89055018Y-104718005D01*
X89169990Y-104140000D01*
X89055018Y-103561995D01*
X88727604Y-103071986D01*
X88425311Y-102870000D01*
X88727604Y-102668014D01*
X89055018Y-102178005D01*
X89169990Y-101600000D01*
X89055018Y-101021995D01*
X88727604Y-100531986D01*
X88425311Y-100330000D01*
X88727604Y-100128014D01*
X89055018Y-99638005D01*
X89169990Y-99060000D01*
X92440010Y-99060000D01*
X92554982Y-99638005D01*
X92882396Y-100128014D01*
X93184689Y-100330000D01*
X92882396Y-100531986D01*
X92554982Y-101021995D01*
X92440010Y-101600000D01*
X92554982Y-102178005D01*
X92882396Y-102668014D01*
X93184689Y-102870000D01*
X92882396Y-103071986D01*
X92554982Y-103561995D01*
X92440010Y-104140000D01*
X92554982Y-104718005D01*
X92882396Y-105208014D01*
X93187329Y-105411764D01*
X93105973Y-105448168D01*
X92701103Y-105876411D01*
X92507468Y-106343907D01*
X92638542Y-106578400D01*
X93878400Y-106578400D01*
X93878400Y-106558400D01*
X94081600Y-106558400D01*
X94081600Y-106578400D01*
X95321458Y-106578400D01*
X95452532Y-106343907D01*
X95258897Y-105876411D01*
X94854027Y-105448168D01*
X94772671Y-105411764D01*
X95077604Y-105208014D01*
X95405018Y-104718005D01*
X95519990Y-104140000D01*
X95405018Y-103561995D01*
X95077604Y-103071986D01*
X94775311Y-102870000D01*
X95077604Y-102668014D01*
X95405018Y-102178005D01*
X95519990Y-101600000D01*
X95405018Y-101021995D01*
X95077604Y-100531986D01*
X94775311Y-100330000D01*
X95077604Y-100128014D01*
X95405018Y-99638005D01*
X95519990Y-99060000D01*
X95405018Y-98481995D01*
X95079218Y-97994401D01*
X95299499Y-97852654D01*
X95450288Y-97631966D01*
X95503338Y-97370000D01*
X95503338Y-95670000D01*
X95457289Y-95425270D01*
X95312654Y-95200501D01*
X95091966Y-95049712D01*
X94830000Y-94996662D01*
X93130000Y-94996662D01*
X92885270Y-95042711D01*
X92660501Y-95187346D01*
X92509712Y-95408034D01*
X92456662Y-95670000D01*
X92456662Y-97370000D01*
X92502711Y-97614730D01*
X92647346Y-97839499D01*
X92868034Y-97990288D01*
X92881684Y-97993052D01*
X92554982Y-98481995D01*
X92440010Y-99060000D01*
X89169990Y-99060000D01*
X89055018Y-98481995D01*
X88727604Y-97991986D01*
X88425311Y-97790000D01*
X88727604Y-97588014D01*
X89055018Y-97098005D01*
X89169990Y-96520000D01*
X89055018Y-95941995D01*
X88727604Y-95451986D01*
X88425311Y-95250000D01*
X88727604Y-95048014D01*
X89055018Y-94558005D01*
X89169990Y-93980000D01*
X89055018Y-93401995D01*
X88727604Y-92911986D01*
X88425311Y-92710000D01*
X88727604Y-92508014D01*
X88908545Y-92237217D01*
X109283347Y-92237217D01*
X109505211Y-92774169D01*
X109915670Y-93185345D01*
X110452234Y-93408146D01*
X111033217Y-93408653D01*
X111570169Y-93186789D01*
X111981345Y-92776330D01*
X112204146Y-92239766D01*
X112204653Y-91658783D01*
X112159814Y-91550263D01*
X126357421Y-91550263D01*
X126476858Y-91848097D01*
X127164618Y-92121507D01*
X127904655Y-92110910D01*
X128539142Y-91848097D01*
X128658579Y-91550263D01*
X127508000Y-90399684D01*
X126357421Y-91550263D01*
X112159814Y-91550263D01*
X111982789Y-91121831D01*
X111572330Y-90710655D01*
X111035766Y-90487854D01*
X110454783Y-90487347D01*
X109917831Y-90709211D01*
X109506655Y-91119670D01*
X109283854Y-91656234D01*
X109283347Y-92237217D01*
X88908545Y-92237217D01*
X89055018Y-92018005D01*
X89169990Y-91440000D01*
X89055018Y-90861995D01*
X88727604Y-90371986D01*
X88425311Y-90170000D01*
X88727604Y-89968014D01*
X88764618Y-89912618D01*
X125642493Y-89912618D01*
X125653090Y-90652655D01*
X125915903Y-91287142D01*
X126213737Y-91406579D01*
X127364316Y-90256000D01*
X127651684Y-90256000D01*
X128802263Y-91406579D01*
X129100097Y-91287142D01*
X129373507Y-90599382D01*
X129362910Y-89859345D01*
X129100097Y-89224858D01*
X128802263Y-89105421D01*
X127651684Y-90256000D01*
X127364316Y-90256000D01*
X126213737Y-89105421D01*
X125915903Y-89224858D01*
X125642493Y-89912618D01*
X88764618Y-89912618D01*
X89055018Y-89478005D01*
X89169990Y-88900000D01*
X89134237Y-88720254D01*
X114908961Y-88720254D01*
X115142901Y-89239841D01*
X115557870Y-89630351D01*
X116003747Y-89815032D01*
X116230400Y-89683309D01*
X116230400Y-88493600D01*
X116433600Y-88493600D01*
X116433600Y-89683309D01*
X116660253Y-89815032D01*
X117106130Y-89630351D01*
X117521099Y-89239841D01*
X117755039Y-88720254D01*
X117623769Y-88493600D01*
X116433600Y-88493600D01*
X116230400Y-88493600D01*
X115040231Y-88493600D01*
X114908961Y-88720254D01*
X89134237Y-88720254D01*
X89055018Y-88321995D01*
X88882462Y-88063746D01*
X114908961Y-88063746D01*
X115040231Y-88290400D01*
X116230400Y-88290400D01*
X116230400Y-87100691D01*
X116433600Y-87100691D01*
X116433600Y-88290400D01*
X117623769Y-88290400D01*
X117755039Y-88063746D01*
X117521099Y-87544159D01*
X117106130Y-87153649D01*
X116660253Y-86968968D01*
X116433600Y-87100691D01*
X116230400Y-87100691D01*
X116003747Y-86968968D01*
X115557870Y-87153649D01*
X115142901Y-87544159D01*
X114908961Y-88063746D01*
X88882462Y-88063746D01*
X88727604Y-87831986D01*
X88425311Y-87630000D01*
X88727604Y-87428014D01*
X89055018Y-86938005D01*
X89169990Y-86360000D01*
X89055018Y-85781995D01*
X88727604Y-85291986D01*
X88425311Y-85090000D01*
X88727604Y-84888014D01*
X89055018Y-84398005D01*
X89169990Y-83820000D01*
X89055018Y-83241995D01*
X88727604Y-82751986D01*
X88425311Y-82550000D01*
X88727604Y-82348014D01*
X88882461Y-82116254D01*
X109320961Y-82116254D01*
X109554901Y-82635841D01*
X109969870Y-83026351D01*
X110415747Y-83211032D01*
X110642400Y-83079309D01*
X110642400Y-81889600D01*
X110845600Y-81889600D01*
X110845600Y-83079309D01*
X111072253Y-83211032D01*
X111518130Y-83026351D01*
X111933099Y-82635841D01*
X112167039Y-82116254D01*
X112035769Y-81889600D01*
X110845600Y-81889600D01*
X110642400Y-81889600D01*
X109452231Y-81889600D01*
X109320961Y-82116254D01*
X88882461Y-82116254D01*
X89055018Y-81858005D01*
X89134236Y-81459746D01*
X109320961Y-81459746D01*
X109452231Y-81686400D01*
X110642400Y-81686400D01*
X110642400Y-80496691D01*
X110845600Y-80496691D01*
X110845600Y-81686400D01*
X112035769Y-81686400D01*
X112167039Y-81459746D01*
X111933099Y-80940159D01*
X111518130Y-80549649D01*
X111072253Y-80364968D01*
X110845600Y-80496691D01*
X110642400Y-80496691D01*
X110415747Y-80364968D01*
X109969870Y-80549649D01*
X109554901Y-80940159D01*
X109320961Y-81459746D01*
X89134236Y-81459746D01*
X89169990Y-81280000D01*
X89055018Y-80701995D01*
X88727604Y-80211986D01*
X88425311Y-80010000D01*
X88727604Y-79808014D01*
X89055018Y-79318005D01*
X89169990Y-78740000D01*
X89126472Y-78521217D01*
X114871347Y-78521217D01*
X115093211Y-79058169D01*
X115503670Y-79469345D01*
X116040234Y-79692146D01*
X116621217Y-79692653D01*
X117158169Y-79470789D01*
X117569345Y-79060330D01*
X117778761Y-78556000D01*
X125634662Y-78556000D01*
X125634662Y-80956000D01*
X125680711Y-81200730D01*
X125825346Y-81425499D01*
X126046034Y-81576288D01*
X126308000Y-81629338D01*
X126573098Y-81629338D01*
X126455545Y-81677910D01*
X125931750Y-82200792D01*
X125647924Y-82884320D01*
X125647278Y-83624433D01*
X125929910Y-84308455D01*
X126452792Y-84832250D01*
X126871413Y-85006077D01*
X126455545Y-85177910D01*
X125931750Y-85700792D01*
X125647924Y-86384320D01*
X125647278Y-87124433D01*
X125929910Y-87808455D01*
X126452792Y-88332250D01*
X126864657Y-88503271D01*
X126476858Y-88663903D01*
X126357421Y-88961737D01*
X127508000Y-90112316D01*
X128658579Y-88961737D01*
X128539142Y-88663903D01*
X128143194Y-88506499D01*
X128560455Y-88334090D01*
X129084250Y-87811208D01*
X129368076Y-87127680D01*
X129368722Y-86387567D01*
X129086090Y-85703545D01*
X128563208Y-85179750D01*
X128144587Y-85005923D01*
X128560455Y-84834090D01*
X129084250Y-84311208D01*
X129368076Y-83627680D01*
X129368722Y-82887567D01*
X129086090Y-82203545D01*
X128563208Y-81679750D01*
X128441803Y-81629338D01*
X128708000Y-81629338D01*
X128952730Y-81583289D01*
X129177499Y-81438654D01*
X129328288Y-81217966D01*
X129381338Y-80956000D01*
X129381338Y-78556000D01*
X129335289Y-78311270D01*
X129190654Y-78086501D01*
X128969966Y-77935712D01*
X128708000Y-77882662D01*
X126308000Y-77882662D01*
X126063270Y-77928711D01*
X125838501Y-78073346D01*
X125687712Y-78294034D01*
X125634662Y-78556000D01*
X117778761Y-78556000D01*
X117792146Y-78523766D01*
X117792653Y-77942783D01*
X117570789Y-77405831D01*
X117160330Y-76994655D01*
X116623766Y-76771854D01*
X116042783Y-76771347D01*
X115505831Y-76993211D01*
X115094655Y-77403670D01*
X114871854Y-77940234D01*
X114871347Y-78521217D01*
X89126472Y-78521217D01*
X89055018Y-78161995D01*
X88727604Y-77671986D01*
X88425311Y-77470000D01*
X88727604Y-77268014D01*
X89055018Y-76778005D01*
X89112461Y-76489217D01*
X109283347Y-76489217D01*
X109505211Y-77026169D01*
X109915670Y-77437345D01*
X110452234Y-77660146D01*
X111033217Y-77660653D01*
X111570169Y-77438789D01*
X111981345Y-77028330D01*
X112204146Y-76491766D01*
X112204653Y-75910783D01*
X111982789Y-75373831D01*
X111572330Y-74962655D01*
X111035766Y-74739854D01*
X110454783Y-74739347D01*
X109917831Y-74961211D01*
X109506655Y-75371670D01*
X109283854Y-75908234D01*
X109283347Y-76489217D01*
X89112461Y-76489217D01*
X89169990Y-76200000D01*
X89055018Y-75621995D01*
X88727604Y-75131986D01*
X88422671Y-74928236D01*
X88504027Y-74891832D01*
X88908897Y-74463589D01*
X89102532Y-73996093D01*
X88971458Y-73761600D01*
X87731600Y-73761600D01*
X87731600Y-73781600D01*
X87528400Y-73781600D01*
X87528400Y-73761600D01*
X86288542Y-73761600D01*
X86157468Y-73996093D01*
X86351103Y-74463589D01*
X86755973Y-74891832D01*
X86837329Y-74928236D01*
X86532396Y-75131986D01*
X86204982Y-75621995D01*
X86090010Y-76200000D01*
X84160400Y-76200000D01*
X84160679Y-75881077D01*
X83916027Y-75288973D01*
X83490769Y-74862971D01*
X83519974Y-74773659D01*
X82550000Y-73803684D01*
X81580026Y-74773659D01*
X81609402Y-74863493D01*
X81185565Y-75286590D01*
X80939880Y-75878266D01*
X80939321Y-76518923D01*
X81183973Y-77111027D01*
X81542549Y-77470229D01*
X81185565Y-77826590D01*
X80939880Y-78418266D01*
X80939321Y-79058923D01*
X81183973Y-79651027D01*
X81542549Y-80010229D01*
X81185565Y-80366590D01*
X80939880Y-80958266D01*
X80939732Y-81127600D01*
X66380534Y-81127600D01*
X66380679Y-80961077D01*
X66136027Y-80368973D01*
X65777451Y-80009771D01*
X66134435Y-79653410D01*
X66380120Y-79061734D01*
X66380679Y-78421077D01*
X66136027Y-77828973D01*
X65777451Y-77469771D01*
X66134435Y-77113410D01*
X66380120Y-76521734D01*
X66380679Y-75881077D01*
X66136027Y-75288973D01*
X65777451Y-74929771D01*
X66134435Y-74573410D01*
X66380120Y-73981734D01*
X66380648Y-73376222D01*
X80932758Y-73376222D01*
X80947267Y-74016715D01*
X81164460Y-74541068D01*
X81436341Y-74629974D01*
X82406316Y-73660000D01*
X82693684Y-73660000D01*
X83663659Y-74629974D01*
X83935540Y-74541068D01*
X84167242Y-73943778D01*
X84152733Y-73303285D01*
X83935540Y-72778932D01*
X83663659Y-72690026D01*
X82693684Y-73660000D01*
X82406316Y-73660000D01*
X81436341Y-72690026D01*
X81164460Y-72778932D01*
X80932758Y-73376222D01*
X66380648Y-73376222D01*
X66380679Y-73341077D01*
X66136027Y-72748973D01*
X65777451Y-72389771D01*
X66134435Y-72033410D01*
X66380120Y-71441734D01*
X66380679Y-70801077D01*
X66136027Y-70208973D01*
X65710769Y-69782971D01*
X65739974Y-69693659D01*
X64770000Y-68723684D01*
X63800026Y-69693659D01*
X63829402Y-69783493D01*
X63405565Y-70206590D01*
X63159880Y-70798266D01*
X63159321Y-71438923D01*
X61166552Y-71438923D01*
X61229990Y-71120000D01*
X61115018Y-70541995D01*
X60787604Y-70051986D01*
X60482671Y-69848236D01*
X60564027Y-69811832D01*
X60968897Y-69383589D01*
X61162532Y-68916093D01*
X61031458Y-68681600D01*
X59791600Y-68681600D01*
X59791600Y-68701600D01*
X59588400Y-68701600D01*
X59588400Y-68681600D01*
X58348542Y-68681600D01*
X58217468Y-68916093D01*
X58411103Y-69383589D01*
X58815973Y-69811832D01*
X58897329Y-69848236D01*
X58592396Y-70051986D01*
X58264982Y-70541995D01*
X58150010Y-71120000D01*
X58264982Y-71698005D01*
X58592396Y-72188014D01*
X58894689Y-72390000D01*
X58592396Y-72591986D01*
X58264982Y-73081995D01*
X58150010Y-73660000D01*
X58264982Y-74238005D01*
X58592396Y-74728014D01*
X58894689Y-74930000D01*
X58592396Y-75131986D01*
X58264982Y-75621995D01*
X58150010Y-76200000D01*
X58264982Y-76778005D01*
X58592396Y-77268014D01*
X58894689Y-77470000D01*
X58592396Y-77671986D01*
X58264982Y-78161995D01*
X58150010Y-78740000D01*
X58264982Y-79318005D01*
X58592396Y-79808014D01*
X58894689Y-80010000D01*
X58592396Y-80211986D01*
X58264982Y-80701995D01*
X58150010Y-81280000D01*
X58264982Y-81858005D01*
X58592396Y-82348014D01*
X58894689Y-82550000D01*
X58592396Y-82751986D01*
X58264982Y-83241995D01*
X58150010Y-83820000D01*
X58264982Y-84398005D01*
X58592396Y-84888014D01*
X58894689Y-85090000D01*
X58592396Y-85291986D01*
X58264982Y-85781995D01*
X58150010Y-86360000D01*
X58264982Y-86938005D01*
X58592396Y-87428014D01*
X58894689Y-87630000D01*
X58592396Y-87831986D01*
X58264982Y-88321995D01*
X58150010Y-88900000D01*
X58264982Y-89478005D01*
X58592396Y-89968014D01*
X58894689Y-90170000D01*
X58592396Y-90371986D01*
X58264982Y-90861995D01*
X58150010Y-91440000D01*
X58264982Y-92018005D01*
X58592396Y-92508014D01*
X58894689Y-92710000D01*
X58592396Y-92911986D01*
X58532184Y-93002100D01*
X51834129Y-93002100D01*
X51528742Y-92875292D01*
X51089186Y-92874909D01*
X50682942Y-93042765D01*
X50371858Y-93353307D01*
X50203292Y-93759258D01*
X50202909Y-94198814D01*
X44602400Y-94198814D01*
X44602400Y-68328433D01*
X47669278Y-68328433D01*
X47951910Y-69012455D01*
X48474792Y-69536250D01*
X48893413Y-69710077D01*
X48477545Y-69881910D01*
X47953750Y-70404792D01*
X47669924Y-71088320D01*
X47669278Y-71828433D01*
X47951910Y-72512455D01*
X48474792Y-73036250D01*
X49158320Y-73320076D01*
X49898433Y-73320722D01*
X50582455Y-73038090D01*
X51106250Y-72515208D01*
X51390076Y-71831680D01*
X51390722Y-71091567D01*
X51108090Y-70407545D01*
X50585208Y-69883750D01*
X50166587Y-69709923D01*
X50582455Y-69538090D01*
X51106250Y-69015208D01*
X51390076Y-68331680D01*
X51390722Y-67591567D01*
X51108090Y-66907545D01*
X50585208Y-66383750D01*
X50173343Y-66212729D01*
X50561142Y-66052097D01*
X50680579Y-65754263D01*
X49530000Y-64603684D01*
X48379421Y-65754263D01*
X48498858Y-66052097D01*
X48894806Y-66209501D01*
X48477545Y-66381910D01*
X47953750Y-66904792D01*
X47669924Y-67588320D01*
X47669278Y-68328433D01*
X44602400Y-68328433D01*
X44602400Y-64116618D01*
X47664493Y-64116618D01*
X47675090Y-64856655D01*
X47937903Y-65491142D01*
X48235737Y-65610579D01*
X49386316Y-64460000D01*
X49673684Y-64460000D01*
X50824263Y-65610579D01*
X51122097Y-65491142D01*
X51241812Y-65190000D01*
X58166662Y-65190000D01*
X58166662Y-66890000D01*
X58212711Y-67134730D01*
X58357346Y-67359499D01*
X58578034Y-67510288D01*
X58649096Y-67524679D01*
X58411103Y-67776411D01*
X58217468Y-68243907D01*
X58348542Y-68478400D01*
X59588400Y-68478400D01*
X59588400Y-68458400D01*
X59791600Y-68458400D01*
X59791600Y-68478400D01*
X61031458Y-68478400D01*
X61133289Y-68296222D01*
X63152758Y-68296222D01*
X63167267Y-68936715D01*
X63384460Y-69461068D01*
X63656341Y-69549974D01*
X64626316Y-68580000D01*
X64913684Y-68580000D01*
X65883659Y-69549974D01*
X66155540Y-69461068D01*
X66387242Y-68863778D01*
X66372733Y-68223285D01*
X66155540Y-67698932D01*
X65883659Y-67610026D01*
X64913684Y-68580000D01*
X64626316Y-68580000D01*
X63656341Y-67610026D01*
X63384460Y-67698932D01*
X63152758Y-68296222D01*
X61133289Y-68296222D01*
X61162532Y-68243907D01*
X60968897Y-67776411D01*
X60733102Y-67527003D01*
X60784730Y-67517289D01*
X61009499Y-67372654D01*
X61160288Y-67151966D01*
X61213338Y-66890000D01*
X61213338Y-66358923D01*
X63159321Y-66358923D01*
X63403973Y-66951027D01*
X63829231Y-67377029D01*
X63800026Y-67466341D01*
X64770000Y-68436316D01*
X65739974Y-67466341D01*
X65710598Y-67376507D01*
X66134435Y-66953410D01*
X66380120Y-66361734D01*
X66380122Y-66358923D01*
X80939321Y-66358923D01*
X81183973Y-66951027D01*
X81542549Y-67310229D01*
X81185565Y-67666590D01*
X80939880Y-68258266D01*
X80939321Y-68898923D01*
X81183973Y-69491027D01*
X81542549Y-69850229D01*
X81185565Y-70206590D01*
X80939880Y-70798266D01*
X80939321Y-71438923D01*
X81183973Y-72031027D01*
X81609231Y-72457029D01*
X81580026Y-72546341D01*
X82550000Y-73516316D01*
X83519974Y-72546341D01*
X83490598Y-72456507D01*
X83914435Y-72033410D01*
X84160120Y-71441734D01*
X84160679Y-70801077D01*
X83916027Y-70208973D01*
X83557451Y-69849771D01*
X83914435Y-69493410D01*
X84160120Y-68901734D01*
X84160400Y-68580000D01*
X86090010Y-68580000D01*
X86204982Y-69158005D01*
X86532396Y-69648014D01*
X86834689Y-69850000D01*
X86532396Y-70051986D01*
X86204982Y-70541995D01*
X86090010Y-71120000D01*
X86204982Y-71698005D01*
X86532396Y-72188014D01*
X86837329Y-72391764D01*
X86755973Y-72428168D01*
X86351103Y-72856411D01*
X86157468Y-73323907D01*
X86288542Y-73558400D01*
X87528400Y-73558400D01*
X87528400Y-73538400D01*
X87731600Y-73538400D01*
X87731600Y-73558400D01*
X88971458Y-73558400D01*
X89102532Y-73323907D01*
X88908897Y-72856411D01*
X88504027Y-72428168D01*
X88422671Y-72391764D01*
X88727604Y-72188014D01*
X89055018Y-71698005D01*
X89169990Y-71120000D01*
X89055018Y-70541995D01*
X88727604Y-70051986D01*
X88425311Y-69850000D01*
X88727604Y-69648014D01*
X89055018Y-69158005D01*
X89169990Y-68580000D01*
X89055018Y-68001995D01*
X88729218Y-67514401D01*
X88949499Y-67372654D01*
X89100288Y-67151966D01*
X89153338Y-66890000D01*
X89153338Y-66011389D01*
X109283600Y-66011389D01*
X109283600Y-66068611D01*
X109394766Y-66627482D01*
X109711341Y-67101270D01*
X110185129Y-67417845D01*
X110744000Y-67529011D01*
X111302871Y-67417845D01*
X111776659Y-67101270D01*
X112093234Y-66627482D01*
X112204400Y-66068611D01*
X112204400Y-66011389D01*
X112093234Y-65452518D01*
X111776659Y-64978730D01*
X111302871Y-64662155D01*
X110744000Y-64550989D01*
X110185129Y-64662155D01*
X109711341Y-64978730D01*
X109394766Y-65452518D01*
X109283600Y-66011389D01*
X89153338Y-66011389D01*
X89153338Y-65190000D01*
X89107289Y-64945270D01*
X88962654Y-64720501D01*
X88741966Y-64569712D01*
X88480000Y-64516662D01*
X86780000Y-64516662D01*
X86535270Y-64562711D01*
X86310501Y-64707346D01*
X86159712Y-64928034D01*
X86106662Y-65190000D01*
X86106662Y-66890000D01*
X86152711Y-67134730D01*
X86297346Y-67359499D01*
X86518034Y-67510288D01*
X86531684Y-67513052D01*
X86204982Y-68001995D01*
X86090010Y-68580000D01*
X84160400Y-68580000D01*
X84160679Y-68261077D01*
X83916027Y-67668973D01*
X83557451Y-67309771D01*
X83914435Y-66953410D01*
X84160120Y-66361734D01*
X84160679Y-65721077D01*
X83916027Y-65128973D01*
X83463410Y-64675565D01*
X82871734Y-64429880D01*
X82231077Y-64429321D01*
X81638973Y-64673973D01*
X81185565Y-65126590D01*
X80939880Y-65718266D01*
X80939321Y-66358923D01*
X66380122Y-66358923D01*
X66380679Y-65721077D01*
X66136027Y-65128973D01*
X65683410Y-64675565D01*
X65091734Y-64429880D01*
X64451077Y-64429321D01*
X63858973Y-64673973D01*
X63405565Y-65126590D01*
X63159880Y-65718266D01*
X63159321Y-66358923D01*
X61213338Y-66358923D01*
X61213338Y-65190000D01*
X61167289Y-64945270D01*
X61022654Y-64720501D01*
X60801966Y-64569712D01*
X60540000Y-64516662D01*
X58840000Y-64516662D01*
X58595270Y-64562711D01*
X58370501Y-64707346D01*
X58219712Y-64928034D01*
X58166662Y-65190000D01*
X51241812Y-65190000D01*
X51395507Y-64803382D01*
X51384910Y-64063345D01*
X51122097Y-63428858D01*
X50824263Y-63309421D01*
X49673684Y-64460000D01*
X49386316Y-64460000D01*
X48235737Y-63309421D01*
X47937903Y-63428858D01*
X47664493Y-64116618D01*
X44602400Y-64116618D01*
X44602400Y-59760000D01*
X47656662Y-59760000D01*
X47656662Y-62160000D01*
X47702711Y-62404730D01*
X47847346Y-62629499D01*
X48068034Y-62780288D01*
X48330000Y-62833338D01*
X48582305Y-62833338D01*
X48498858Y-62867903D01*
X48379421Y-63165737D01*
X49530000Y-64316316D01*
X50680579Y-63165737D01*
X50561142Y-62867903D01*
X50474194Y-62833338D01*
X50730000Y-62833338D01*
X50974730Y-62787289D01*
X51199499Y-62642654D01*
X51350288Y-62421966D01*
X51374986Y-62300000D01*
X125761662Y-62300000D01*
X125761662Y-64700000D01*
X125807711Y-64944730D01*
X125952346Y-65169499D01*
X126173034Y-65320288D01*
X126435000Y-65373338D01*
X126700098Y-65373338D01*
X126582545Y-65421910D01*
X126058750Y-65944792D01*
X125774924Y-66628320D01*
X125774278Y-67368433D01*
X126056910Y-68052455D01*
X126579792Y-68576250D01*
X126998413Y-68750077D01*
X126582545Y-68921910D01*
X126058750Y-69444792D01*
X125774924Y-70128320D01*
X125774278Y-70868433D01*
X126056910Y-71552455D01*
X126579792Y-72076250D01*
X126998413Y-72250077D01*
X126582545Y-72421910D01*
X126058750Y-72944792D01*
X125774924Y-73628320D01*
X125774278Y-74368433D01*
X126056910Y-75052455D01*
X126579792Y-75576250D01*
X127263320Y-75860076D01*
X128003433Y-75860722D01*
X128687455Y-75578090D01*
X129211250Y-75055208D01*
X129495076Y-74371680D01*
X129495722Y-73631567D01*
X129213090Y-72947545D01*
X128690208Y-72423750D01*
X128271587Y-72249923D01*
X128687455Y-72078090D01*
X129211250Y-71555208D01*
X129495076Y-70871680D01*
X129495722Y-70131567D01*
X129213090Y-69447545D01*
X128690208Y-68923750D01*
X128271587Y-68749923D01*
X128687455Y-68578090D01*
X129211250Y-68055208D01*
X129495076Y-67371680D01*
X129495722Y-66631567D01*
X129213090Y-65947545D01*
X128690208Y-65423750D01*
X128568803Y-65373338D01*
X128835000Y-65373338D01*
X129079730Y-65327289D01*
X129304499Y-65182654D01*
X129455288Y-64961966D01*
X129508338Y-64700000D01*
X129508338Y-62300000D01*
X129462289Y-62055270D01*
X129317654Y-61830501D01*
X129096966Y-61679712D01*
X128835000Y-61626662D01*
X126435000Y-61626662D01*
X126190270Y-61672711D01*
X125965501Y-61817346D01*
X125814712Y-62038034D01*
X125761662Y-62300000D01*
X51374986Y-62300000D01*
X51403338Y-62160000D01*
X51403338Y-60614217D01*
X86169347Y-60614217D01*
X86391211Y-61151169D01*
X86801670Y-61562345D01*
X87338234Y-61785146D01*
X87919217Y-61785653D01*
X88456169Y-61563789D01*
X88867345Y-61153330D01*
X89090146Y-60616766D01*
X89090400Y-60325000D01*
X96300989Y-60325000D01*
X96412155Y-60883871D01*
X96728730Y-61357659D01*
X97202518Y-61674234D01*
X97761389Y-61785400D01*
X97818611Y-61785400D01*
X98377482Y-61674234D01*
X98851270Y-61357659D01*
X99167845Y-60883871D01*
X99279011Y-60325000D01*
X99167845Y-59766129D01*
X98851270Y-59292341D01*
X98377482Y-58975766D01*
X97818611Y-58864600D01*
X97761389Y-58864600D01*
X97202518Y-58975766D01*
X96728730Y-59292341D01*
X96412155Y-59766129D01*
X96300989Y-60325000D01*
X89090400Y-60325000D01*
X89090653Y-60035783D01*
X88868789Y-59498831D01*
X88458330Y-59087655D01*
X87921766Y-58864854D01*
X87340783Y-58864347D01*
X86803831Y-59086211D01*
X86392655Y-59496670D01*
X86169854Y-60033234D01*
X86169347Y-60614217D01*
X51403338Y-60614217D01*
X51403338Y-59760000D01*
X51357289Y-59515270D01*
X51212654Y-59290501D01*
X50991966Y-59139712D01*
X50730000Y-59086662D01*
X48330000Y-59086662D01*
X48085270Y-59132711D01*
X47860501Y-59277346D01*
X47709712Y-59498034D01*
X47656662Y-59760000D01*
X44602400Y-59760000D01*
X44602400Y-56606814D01*
X78650909Y-56606814D01*
X78818765Y-57013058D01*
X79129307Y-57324142D01*
X79535258Y-57492708D01*
X79974814Y-57493091D01*
X80282641Y-57365900D01*
X84309871Y-57365900D01*
X84615258Y-57492708D01*
X85054814Y-57493091D01*
X85461058Y-57325235D01*
X85772142Y-57014693D01*
X85940708Y-56608742D01*
X85941091Y-56169186D01*
X85773235Y-55762942D01*
X85462693Y-55451858D01*
X85056742Y-55283292D01*
X84617186Y-55282909D01*
X84309359Y-55410100D01*
X80282129Y-55410100D01*
X79976742Y-55283292D01*
X79537186Y-55282909D01*
X79130942Y-55450765D01*
X78819858Y-55761307D01*
X78651292Y-56167258D01*
X78650909Y-56606814D01*
X44602400Y-56606814D01*
X44602400Y-51524904D01*
X47138966Y-51524904D01*
X47695055Y-52870741D01*
X48723843Y-53901326D01*
X50068707Y-54459763D01*
X51524904Y-54461034D01*
X52870741Y-53904945D01*
X53901326Y-52876157D01*
X54459763Y-51531293D01*
X54460168Y-51066700D01*
X61639600Y-51066700D01*
X61639600Y-52131361D01*
X61740140Y-52374086D01*
X61925913Y-52559860D01*
X62168638Y-52660400D01*
X63233300Y-52660400D01*
X63398400Y-52495300D01*
X63398400Y-50901600D01*
X61804700Y-50901600D01*
X61639600Y-51066700D01*
X54460168Y-51066700D01*
X54461034Y-50075096D01*
X54210451Y-49468639D01*
X61639600Y-49468639D01*
X61639600Y-50533300D01*
X61804700Y-50698400D01*
X63398400Y-50698400D01*
X63398400Y-49104700D01*
X63601600Y-49104700D01*
X63601600Y-50698400D01*
X63621600Y-50698400D01*
X63621600Y-50901600D01*
X63601600Y-50901600D01*
X63601600Y-52495300D01*
X63766700Y-52660400D01*
X64831362Y-52660400D01*
X65074087Y-52559860D01*
X65259860Y-52374086D01*
X65360400Y-52131361D01*
X65360400Y-52094263D01*
X65849421Y-52094263D01*
X65968858Y-52392097D01*
X66656618Y-52665507D01*
X67396655Y-52654910D01*
X68031142Y-52392097D01*
X68150579Y-52094263D01*
X69349421Y-52094263D01*
X69468858Y-52392097D01*
X70156618Y-52665507D01*
X70896655Y-52654910D01*
X71531142Y-52392097D01*
X71650579Y-52094263D01*
X72849421Y-52094263D01*
X72968858Y-52392097D01*
X73656618Y-52665507D01*
X74396655Y-52654910D01*
X75031142Y-52392097D01*
X75150579Y-52094263D01*
X74000000Y-50943684D01*
X72849421Y-52094263D01*
X71650579Y-52094263D01*
X70500000Y-50943684D01*
X69349421Y-52094263D01*
X68150579Y-52094263D01*
X67000000Y-50943684D01*
X65849421Y-52094263D01*
X65360400Y-52094263D01*
X65360400Y-51716460D01*
X65407903Y-51831142D01*
X65705737Y-51950579D01*
X66856316Y-50800000D01*
X67143684Y-50800000D01*
X68294263Y-51950579D01*
X68592097Y-51831142D01*
X68746756Y-51442099D01*
X68907903Y-51831142D01*
X69205737Y-51950579D01*
X70356316Y-50800000D01*
X70643684Y-50800000D01*
X71794263Y-51950579D01*
X72092097Y-51831142D01*
X72246756Y-51442099D01*
X72407903Y-51831142D01*
X72705737Y-51950579D01*
X73856316Y-50800000D01*
X74143684Y-50800000D01*
X75294263Y-51950579D01*
X75592097Y-51831142D01*
X75865507Y-51143382D01*
X75854910Y-50403345D01*
X75592097Y-49768858D01*
X75294263Y-49649421D01*
X74143684Y-50800000D01*
X73856316Y-50800000D01*
X72705737Y-49649421D01*
X72407903Y-49768858D01*
X72253244Y-50157901D01*
X72092097Y-49768858D01*
X71794263Y-49649421D01*
X70643684Y-50800000D01*
X70356316Y-50800000D01*
X69205737Y-49649421D01*
X68907903Y-49768858D01*
X68753244Y-50157901D01*
X68592097Y-49768858D01*
X68294263Y-49649421D01*
X67143684Y-50800000D01*
X66856316Y-50800000D01*
X65705737Y-49649421D01*
X65407903Y-49768858D01*
X65360400Y-49888351D01*
X65360400Y-49505737D01*
X65849421Y-49505737D01*
X67000000Y-50656316D01*
X68150579Y-49505737D01*
X69349421Y-49505737D01*
X70500000Y-50656316D01*
X71650579Y-49505737D01*
X72849421Y-49505737D01*
X74000000Y-50656316D01*
X75056316Y-49600000D01*
X81946662Y-49600000D01*
X81946662Y-52000000D01*
X81992711Y-52244730D01*
X82137346Y-52469499D01*
X82358034Y-52620288D01*
X82620000Y-52673338D01*
X85020000Y-52673338D01*
X85264730Y-52627289D01*
X85489499Y-52482654D01*
X85640288Y-52261966D01*
X85693338Y-52000000D01*
X85693338Y-51734902D01*
X85741910Y-51852455D01*
X86264792Y-52376250D01*
X86948320Y-52660076D01*
X87688433Y-52660722D01*
X88372455Y-52378090D01*
X88896250Y-51855208D01*
X89070077Y-51436587D01*
X89241910Y-51852455D01*
X89764792Y-52376250D01*
X90448320Y-52660076D01*
X91188433Y-52660722D01*
X91872455Y-52378090D01*
X92396250Y-51855208D01*
X92570077Y-51436587D01*
X92741910Y-51852455D01*
X93264792Y-52376250D01*
X93948320Y-52660076D01*
X94688433Y-52660722D01*
X95372455Y-52378090D01*
X95896250Y-51855208D01*
X96180076Y-51171680D01*
X96180722Y-50431567D01*
X95898090Y-49747545D01*
X95750803Y-49600000D01*
X102266662Y-49600000D01*
X102266662Y-52000000D01*
X102312711Y-52244730D01*
X102457346Y-52469499D01*
X102678034Y-52620288D01*
X102940000Y-52673338D01*
X105340000Y-52673338D01*
X105584730Y-52627289D01*
X105809499Y-52482654D01*
X105960288Y-52261966D01*
X106013338Y-52000000D01*
X106013338Y-51734902D01*
X106061910Y-51852455D01*
X106584792Y-52376250D01*
X107268320Y-52660076D01*
X108008433Y-52660722D01*
X108692455Y-52378090D01*
X109216250Y-51855208D01*
X109390077Y-51436587D01*
X109561910Y-51852455D01*
X110084792Y-52376250D01*
X110768320Y-52660076D01*
X111508433Y-52660722D01*
X112192455Y-52378090D01*
X112716250Y-51855208D01*
X112890077Y-51436587D01*
X113061910Y-51852455D01*
X113584792Y-52376250D01*
X114268320Y-52660076D01*
X115008433Y-52660722D01*
X115692455Y-52378090D01*
X116216250Y-51855208D01*
X116353404Y-51524904D01*
X123338966Y-51524904D01*
X123895055Y-52870741D01*
X124923843Y-53901326D01*
X126268707Y-54459763D01*
X127724904Y-54461034D01*
X129070741Y-53904945D01*
X130101326Y-52876157D01*
X130659763Y-51531293D01*
X130661034Y-50075096D01*
X130104945Y-48729259D01*
X129076157Y-47698674D01*
X127731293Y-47140237D01*
X126275096Y-47138966D01*
X124929259Y-47695055D01*
X123898674Y-48723843D01*
X123340237Y-50068707D01*
X123338966Y-51524904D01*
X116353404Y-51524904D01*
X116500076Y-51171680D01*
X116500722Y-50431567D01*
X116218090Y-49747545D01*
X115695208Y-49223750D01*
X115011680Y-48939924D01*
X114271567Y-48939278D01*
X113587545Y-49221910D01*
X113063750Y-49744792D01*
X112889923Y-50163413D01*
X112718090Y-49747545D01*
X112195208Y-49223750D01*
X111511680Y-48939924D01*
X110771567Y-48939278D01*
X110087545Y-49221910D01*
X109563750Y-49744792D01*
X109389923Y-50163413D01*
X109218090Y-49747545D01*
X108695208Y-49223750D01*
X108011680Y-48939924D01*
X107271567Y-48939278D01*
X106587545Y-49221910D01*
X106063750Y-49744792D01*
X106013338Y-49866197D01*
X106013338Y-49600000D01*
X105967289Y-49355270D01*
X105822654Y-49130501D01*
X105601966Y-48979712D01*
X105340000Y-48926662D01*
X102940000Y-48926662D01*
X102695270Y-48972711D01*
X102470501Y-49117346D01*
X102319712Y-49338034D01*
X102266662Y-49600000D01*
X95750803Y-49600000D01*
X95375208Y-49223750D01*
X94691680Y-48939924D01*
X93951567Y-48939278D01*
X93267545Y-49221910D01*
X92743750Y-49744792D01*
X92569923Y-50163413D01*
X92398090Y-49747545D01*
X91875208Y-49223750D01*
X91191680Y-48939924D01*
X90451567Y-48939278D01*
X89767545Y-49221910D01*
X89243750Y-49744792D01*
X89069923Y-50163413D01*
X88898090Y-49747545D01*
X88375208Y-49223750D01*
X87691680Y-48939924D01*
X86951567Y-48939278D01*
X86267545Y-49221910D01*
X85743750Y-49744792D01*
X85693338Y-49866197D01*
X85693338Y-49600000D01*
X85647289Y-49355270D01*
X85502654Y-49130501D01*
X85281966Y-48979712D01*
X85020000Y-48926662D01*
X82620000Y-48926662D01*
X82375270Y-48972711D01*
X82150501Y-49117346D01*
X81999712Y-49338034D01*
X81946662Y-49600000D01*
X75056316Y-49600000D01*
X75150579Y-49505737D01*
X75031142Y-49207903D01*
X74343382Y-48934493D01*
X73603345Y-48945090D01*
X72968858Y-49207903D01*
X72849421Y-49505737D01*
X71650579Y-49505737D01*
X71531142Y-49207903D01*
X70843382Y-48934493D01*
X70103345Y-48945090D01*
X69468858Y-49207903D01*
X69349421Y-49505737D01*
X68150579Y-49505737D01*
X68031142Y-49207903D01*
X67343382Y-48934493D01*
X66603345Y-48945090D01*
X65968858Y-49207903D01*
X65849421Y-49505737D01*
X65360400Y-49505737D01*
X65360400Y-49468639D01*
X65259860Y-49225914D01*
X65074087Y-49040140D01*
X64831362Y-48939600D01*
X63766700Y-48939600D01*
X63601600Y-49104700D01*
X63398400Y-49104700D01*
X63233300Y-48939600D01*
X62168638Y-48939600D01*
X61925913Y-49040140D01*
X61740140Y-49225914D01*
X61639600Y-49468639D01*
X54210451Y-49468639D01*
X53904945Y-48729259D01*
X52876157Y-47698674D01*
X51531293Y-47140237D01*
X50075096Y-47138966D01*
X48729259Y-47695055D01*
X47698674Y-48723843D01*
X47140237Y-50068707D01*
X47138966Y-51524904D01*
X44602400Y-51524904D01*
X44602400Y-44602400D01*
X133197600Y-44602400D01*
X133197600Y-120497600D01*
X133197600Y-120497600D01*
G37*
X133197600Y-120497600D02*
X44602400Y-120497600D01*
X44602400Y-115024904D01*
X47138966Y-115024904D01*
X47695055Y-116370741D01*
X48723843Y-117401326D01*
X50068707Y-117959763D01*
X51524904Y-117961034D01*
X52870741Y-117404945D01*
X53901326Y-116376157D01*
X54459763Y-115031293D01*
X54459768Y-115024904D01*
X123338966Y-115024904D01*
X123895055Y-116370741D01*
X124923843Y-117401326D01*
X126268707Y-117959763D01*
X127724904Y-117961034D01*
X129070741Y-117404945D01*
X130101326Y-116376157D01*
X130659763Y-115031293D01*
X130661034Y-113575096D01*
X130104945Y-112229259D01*
X129076157Y-111198674D01*
X127731293Y-110640237D01*
X126275096Y-110638966D01*
X124929259Y-111195055D01*
X123898674Y-112223843D01*
X123340237Y-113568707D01*
X123338966Y-115024904D01*
X54459768Y-115024904D01*
X54461034Y-113575096D01*
X53904945Y-112229259D01*
X52876157Y-111198674D01*
X51531293Y-110640237D01*
X50075096Y-110638966D01*
X48729259Y-111195055D01*
X47698674Y-112223843D01*
X47140237Y-113568707D01*
X47138966Y-115024904D01*
X44602400Y-115024904D01*
X44602400Y-94198814D01*
X50202909Y-94198814D01*
X50370765Y-94605058D01*
X50681307Y-94916142D01*
X51087258Y-95084708D01*
X51526814Y-95085091D01*
X51834641Y-94957900D01*
X58532184Y-94957900D01*
X58592396Y-95048014D01*
X58894689Y-95250000D01*
X58592396Y-95451986D01*
X58264982Y-95941995D01*
X58150010Y-96520000D01*
X58264982Y-97098005D01*
X58592396Y-97588014D01*
X58894689Y-97790000D01*
X58592396Y-97991986D01*
X58264982Y-98481995D01*
X58150010Y-99060000D01*
X58264982Y-99638005D01*
X58592396Y-100128014D01*
X58894689Y-100330000D01*
X58592396Y-100531986D01*
X58264982Y-101021995D01*
X58150010Y-101600000D01*
X58264982Y-102178005D01*
X58592396Y-102668014D01*
X58894689Y-102870000D01*
X58592396Y-103071986D01*
X58264982Y-103561995D01*
X58150010Y-104140000D01*
X58264982Y-104718005D01*
X58592396Y-105208014D01*
X58894689Y-105410000D01*
X58592396Y-105611986D01*
X58264982Y-106101995D01*
X58150010Y-106680000D01*
X58264982Y-107258005D01*
X58592396Y-107748014D01*
X58894689Y-107950000D01*
X58592396Y-108151986D01*
X58264982Y-108641995D01*
X58150010Y-109220000D01*
X58264982Y-109798005D01*
X58592396Y-110288014D01*
X59082405Y-110615428D01*
X59660410Y-110730400D01*
X59719590Y-110730400D01*
X60297595Y-110615428D01*
X60787604Y-110288014D01*
X61115018Y-109798005D01*
X61229990Y-109220000D01*
X61115018Y-108641995D01*
X60787604Y-108151986D01*
X60485311Y-107950000D01*
X60787604Y-107748014D01*
X61115018Y-107258005D01*
X61229990Y-106680000D01*
X61115018Y-106101995D01*
X60787604Y-105611986D01*
X60485311Y-105410000D01*
X60787604Y-105208014D01*
X61115018Y-104718005D01*
X61229990Y-104140000D01*
X61115018Y-103561995D01*
X60787604Y-103071986D01*
X60485311Y-102870000D01*
X60787604Y-102668014D01*
X61115018Y-102178005D01*
X61229990Y-101600000D01*
X61115018Y-101021995D01*
X60787604Y-100531986D01*
X60485311Y-100330000D01*
X60787604Y-100128014D01*
X61115018Y-99638005D01*
X61229990Y-99060000D01*
X61115018Y-98481995D01*
X60787604Y-97991986D01*
X60485311Y-97790000D01*
X60787604Y-97588014D01*
X61115018Y-97098005D01*
X61229990Y-96520000D01*
X61115018Y-95941995D01*
X60787604Y-95451986D01*
X60485311Y-95250000D01*
X60787604Y-95048014D01*
X61115018Y-94558005D01*
X61229990Y-93980000D01*
X61115018Y-93401995D01*
X60787604Y-92911986D01*
X60485311Y-92710000D01*
X60787604Y-92508014D01*
X61115018Y-92018005D01*
X61229990Y-91440000D01*
X61115018Y-90861995D01*
X60787604Y-90371986D01*
X60485311Y-90170000D01*
X60787604Y-89968014D01*
X61115018Y-89478005D01*
X61229990Y-88900000D01*
X61115018Y-88321995D01*
X60787604Y-87831986D01*
X60485311Y-87630000D01*
X60787604Y-87428014D01*
X61115018Y-86938005D01*
X61229990Y-86360000D01*
X61115018Y-85781995D01*
X60787604Y-85291986D01*
X60485311Y-85090000D01*
X60787604Y-84888014D01*
X61115018Y-84398005D01*
X61229990Y-83820000D01*
X61115018Y-83241995D01*
X60787604Y-82751986D01*
X60485311Y-82550000D01*
X60787604Y-82348014D01*
X61115018Y-81858005D01*
X61229990Y-81280000D01*
X61115018Y-80701995D01*
X60787604Y-80211986D01*
X60485311Y-80010000D01*
X60787604Y-79808014D01*
X61115018Y-79318005D01*
X61229990Y-78740000D01*
X61115018Y-78161995D01*
X60787604Y-77671986D01*
X60485311Y-77470000D01*
X60787604Y-77268014D01*
X61115018Y-76778005D01*
X61229990Y-76200000D01*
X61115018Y-75621995D01*
X60787604Y-75131986D01*
X60485311Y-74930000D01*
X60787604Y-74728014D01*
X61115018Y-74238005D01*
X61229990Y-73660000D01*
X61115018Y-73081995D01*
X60787604Y-72591986D01*
X60485311Y-72390000D01*
X60787604Y-72188014D01*
X61115018Y-71698005D01*
X61166552Y-71438923D01*
X63159321Y-71438923D01*
X63403973Y-72031027D01*
X63762549Y-72390229D01*
X63405565Y-72746590D01*
X63159880Y-73338266D01*
X63159321Y-73978923D01*
X63403973Y-74571027D01*
X63762549Y-74930229D01*
X63405565Y-75286590D01*
X63159880Y-75878266D01*
X63159321Y-76518923D01*
X63403973Y-77111027D01*
X63762549Y-77470229D01*
X63405565Y-77826590D01*
X63159880Y-78418266D01*
X63159321Y-79058923D01*
X63403973Y-79651027D01*
X63762549Y-80010229D01*
X63405565Y-80366590D01*
X63159880Y-80958266D01*
X63159321Y-81598923D01*
X63403973Y-82191027D01*
X63762549Y-82550229D01*
X63405565Y-82906590D01*
X63159880Y-83498266D01*
X63159321Y-84138923D01*
X63403973Y-84731027D01*
X63762549Y-85090229D01*
X63405565Y-85446590D01*
X63159880Y-86038266D01*
X63159321Y-86678923D01*
X63403973Y-87271027D01*
X63762549Y-87630229D01*
X63405565Y-87986590D01*
X63159880Y-88578266D01*
X63159321Y-89218923D01*
X63403973Y-89811027D01*
X63762549Y-90170229D01*
X63405565Y-90526590D01*
X63159880Y-91118266D01*
X63159321Y-91758923D01*
X63403973Y-92351027D01*
X63762549Y-92710229D01*
X63405565Y-93066590D01*
X63159880Y-93658266D01*
X63159321Y-94298923D01*
X63403973Y-94891027D01*
X63762549Y-95250229D01*
X63405565Y-95606590D01*
X63159880Y-96198266D01*
X63159321Y-96838923D01*
X63403973Y-97431027D01*
X63762549Y-97790229D01*
X63405565Y-98146590D01*
X63159880Y-98738266D01*
X63159321Y-99378923D01*
X63403973Y-99971027D01*
X63762549Y-100330229D01*
X63405565Y-100686590D01*
X63159880Y-101278266D01*
X63159321Y-101918923D01*
X63403973Y-102511027D01*
X63762549Y-102870229D01*
X63405565Y-103226590D01*
X63159880Y-103818266D01*
X63159321Y-104458923D01*
X63403973Y-105051027D01*
X63762549Y-105410229D01*
X63405565Y-105766590D01*
X63159880Y-106358266D01*
X63159321Y-106998923D01*
X63403973Y-107591027D01*
X63762549Y-107950229D01*
X63405565Y-108306590D01*
X63159880Y-108898266D01*
X63159321Y-109538923D01*
X63403973Y-110131027D01*
X63856590Y-110584435D01*
X64448266Y-110830120D01*
X65088923Y-110830679D01*
X65681027Y-110586027D01*
X65887600Y-110379814D01*
X65887600Y-113665000D01*
X65898023Y-113720391D01*
X65930758Y-113771264D01*
X65980708Y-113805393D01*
X66040000Y-113817400D01*
X81280000Y-113817400D01*
X81335391Y-113806977D01*
X81386264Y-113774242D01*
X81420393Y-113724292D01*
X81432400Y-113665000D01*
X81432400Y-110379888D01*
X81636590Y-110584435D01*
X82228266Y-110830120D01*
X82868923Y-110830679D01*
X83461027Y-110586027D01*
X83914435Y-110133410D01*
X84160120Y-109541734D01*
X84160679Y-108901077D01*
X83916027Y-108308973D01*
X83557451Y-107949771D01*
X83914435Y-107593410D01*
X84160120Y-107001734D01*
X84160679Y-106361077D01*
X83916027Y-105768973D01*
X83557451Y-105409771D01*
X83914435Y-105053410D01*
X84160120Y-104461734D01*
X84160679Y-103821077D01*
X83916027Y-103228973D01*
X83557451Y-102869771D01*
X83914435Y-102513410D01*
X84160120Y-101921734D01*
X84160679Y-101281077D01*
X83916027Y-100688973D01*
X83557451Y-100329771D01*
X83914435Y-99973410D01*
X84160120Y-99381734D01*
X84160679Y-98741077D01*
X83916027Y-98148973D01*
X83557451Y-97789771D01*
X83914435Y-97433410D01*
X84160120Y-96841734D01*
X84160679Y-96201077D01*
X83916027Y-95608973D01*
X83557451Y-95249771D01*
X83914435Y-94893410D01*
X84160120Y-94301734D01*
X84160679Y-93661077D01*
X83916027Y-93068973D01*
X83557451Y-92709771D01*
X83914435Y-92353410D01*
X84160120Y-91761734D01*
X84160679Y-91121077D01*
X83916027Y-90528973D01*
X83557451Y-90169771D01*
X83914435Y-89813410D01*
X84160120Y-89221734D01*
X84160679Y-88581077D01*
X83916027Y-87988973D01*
X83557451Y-87629771D01*
X83914435Y-87273410D01*
X84160120Y-86681734D01*
X84160679Y-86041077D01*
X83916027Y-85448973D01*
X83557451Y-85089771D01*
X83914435Y-84733410D01*
X84160120Y-84141734D01*
X84160679Y-83501077D01*
X83916027Y-82908973D01*
X83557451Y-82549771D01*
X83914435Y-82193410D01*
X84160120Y-81601734D01*
X84160679Y-80961077D01*
X83916027Y-80368973D01*
X83557451Y-80009771D01*
X83914435Y-79653410D01*
X84160120Y-79061734D01*
X84160679Y-78421077D01*
X83916027Y-77828973D01*
X83557451Y-77469771D01*
X83914435Y-77113410D01*
X84160120Y-76521734D01*
X84160400Y-76200000D01*
X86090010Y-76200000D01*
X86204982Y-76778005D01*
X86532396Y-77268014D01*
X86834689Y-77470000D01*
X86532396Y-77671986D01*
X86204982Y-78161995D01*
X86090010Y-78740000D01*
X86204982Y-79318005D01*
X86532396Y-79808014D01*
X86834689Y-80010000D01*
X86532396Y-80211986D01*
X86204982Y-80701995D01*
X86090010Y-81280000D01*
X86204982Y-81858005D01*
X86532396Y-82348014D01*
X86834689Y-82550000D01*
X86532396Y-82751986D01*
X86204982Y-83241995D01*
X86090010Y-83820000D01*
X86204982Y-84398005D01*
X86532396Y-84888014D01*
X86834689Y-85090000D01*
X86532396Y-85291986D01*
X86204982Y-85781995D01*
X86090010Y-86360000D01*
X86204982Y-86938005D01*
X86532396Y-87428014D01*
X86834689Y-87630000D01*
X86532396Y-87831986D01*
X86204982Y-88321995D01*
X86090010Y-88900000D01*
X86204982Y-89478005D01*
X86532396Y-89968014D01*
X86834689Y-90170000D01*
X86532396Y-90371986D01*
X86204982Y-90861995D01*
X86090010Y-91440000D01*
X86204982Y-92018005D01*
X86532396Y-92508014D01*
X86834689Y-92710000D01*
X86532396Y-92911986D01*
X86204982Y-93401995D01*
X86090010Y-93980000D01*
X86204982Y-94558005D01*
X86532396Y-95048014D01*
X86834689Y-95250000D01*
X86532396Y-95451986D01*
X86204982Y-95941995D01*
X86090010Y-96520000D01*
X86204982Y-97098005D01*
X86532396Y-97588014D01*
X86834689Y-97790000D01*
X86532396Y-97991986D01*
X86204982Y-98481995D01*
X86090010Y-99060000D01*
X86204982Y-99638005D01*
X86532396Y-100128014D01*
X86834689Y-100330000D01*
X86532396Y-100531986D01*
X86204982Y-101021995D01*
X86090010Y-101600000D01*
X86204982Y-102178005D01*
X86532396Y-102668014D01*
X86834689Y-102870000D01*
X86532396Y-103071986D01*
X86204982Y-103561995D01*
X86090010Y-104140000D01*
X86204982Y-104718005D01*
X86532396Y-105208014D01*
X86834689Y-105410000D01*
X86532396Y-105611986D01*
X86204982Y-106101995D01*
X86090010Y-106680000D01*
X86204982Y-107258005D01*
X86532396Y-107748014D01*
X86834689Y-107950000D01*
X86532396Y-108151986D01*
X86204982Y-108641995D01*
X86090010Y-109220000D01*
X86204982Y-109798005D01*
X86532396Y-110288014D01*
X87022405Y-110615428D01*
X87600410Y-110730400D01*
X87659590Y-110730400D01*
X88237595Y-110615428D01*
X88727604Y-110288014D01*
X89055018Y-109798005D01*
X89103137Y-109556093D01*
X92507468Y-109556093D01*
X92701103Y-110023589D01*
X93105973Y-110451832D01*
X93643906Y-110692540D01*
X93878400Y-110561887D01*
X93878400Y-109321600D01*
X94081600Y-109321600D01*
X94081600Y-110561887D01*
X94316094Y-110692540D01*
X94854027Y-110451832D01*
X95258897Y-110023589D01*
X95452532Y-109556093D01*
X95321458Y-109321600D01*
X94081600Y-109321600D01*
X93878400Y-109321600D01*
X92638542Y-109321600D01*
X92507468Y-109556093D01*
X89103137Y-109556093D01*
X89169990Y-109220000D01*
X89055018Y-108641995D01*
X88727604Y-108151986D01*
X88425311Y-107950000D01*
X88727604Y-107748014D01*
X89055018Y-107258005D01*
X89103137Y-107016093D01*
X92507468Y-107016093D01*
X92701103Y-107483589D01*
X93105973Y-107911832D01*
X93191271Y-107950000D01*
X93105973Y-107988168D01*
X92701103Y-108416411D01*
X92507468Y-108883907D01*
X92638542Y-109118400D01*
X93878400Y-109118400D01*
X93878400Y-106781600D01*
X94081600Y-106781600D01*
X94081600Y-109118400D01*
X95321458Y-109118400D01*
X95452532Y-108883907D01*
X95258897Y-108416411D01*
X94854027Y-107988168D01*
X94768729Y-107950000D01*
X94854027Y-107911832D01*
X95258897Y-107483589D01*
X95452532Y-107016093D01*
X95321458Y-106781600D01*
X94081600Y-106781600D01*
X93878400Y-106781600D01*
X92638542Y-106781600D01*
X92507468Y-107016093D01*
X89103137Y-107016093D01*
X89169990Y-106680000D01*
X89055018Y-106101995D01*
X88727604Y-105611986D01*
X88425311Y-105410000D01*
X88727604Y-105208014D01*
X89055018Y-104718005D01*
X89169990Y-104140000D01*
X89055018Y-103561995D01*
X88727604Y-103071986D01*
X88425311Y-102870000D01*
X88727604Y-102668014D01*
X89055018Y-102178005D01*
X89169990Y-101600000D01*
X89055018Y-101021995D01*
X88727604Y-100531986D01*
X88425311Y-100330000D01*
X88727604Y-100128014D01*
X89055018Y-99638005D01*
X89169990Y-99060000D01*
X92440010Y-99060000D01*
X92554982Y-99638005D01*
X92882396Y-100128014D01*
X93184689Y-100330000D01*
X92882396Y-100531986D01*
X92554982Y-101021995D01*
X92440010Y-101600000D01*
X92554982Y-102178005D01*
X92882396Y-102668014D01*
X93184689Y-102870000D01*
X92882396Y-103071986D01*
X92554982Y-103561995D01*
X92440010Y-104140000D01*
X92554982Y-104718005D01*
X92882396Y-105208014D01*
X93187329Y-105411764D01*
X93105973Y-105448168D01*
X92701103Y-105876411D01*
X92507468Y-106343907D01*
X92638542Y-106578400D01*
X93878400Y-106578400D01*
X93878400Y-106558400D01*
X94081600Y-106558400D01*
X94081600Y-106578400D01*
X95321458Y-106578400D01*
X95452532Y-106343907D01*
X95258897Y-105876411D01*
X94854027Y-105448168D01*
X94772671Y-105411764D01*
X95077604Y-105208014D01*
X95405018Y-104718005D01*
X95519990Y-104140000D01*
X95405018Y-103561995D01*
X95077604Y-103071986D01*
X94775311Y-102870000D01*
X95077604Y-102668014D01*
X95405018Y-102178005D01*
X95519990Y-101600000D01*
X95405018Y-101021995D01*
X95077604Y-100531986D01*
X94775311Y-100330000D01*
X95077604Y-100128014D01*
X95405018Y-99638005D01*
X95519990Y-99060000D01*
X95405018Y-98481995D01*
X95079218Y-97994401D01*
X95299499Y-97852654D01*
X95450288Y-97631966D01*
X95503338Y-97370000D01*
X95503338Y-95670000D01*
X95457289Y-95425270D01*
X95312654Y-95200501D01*
X95091966Y-95049712D01*
X94830000Y-94996662D01*
X93130000Y-94996662D01*
X92885270Y-95042711D01*
X92660501Y-95187346D01*
X92509712Y-95408034D01*
X92456662Y-95670000D01*
X92456662Y-97370000D01*
X92502711Y-97614730D01*
X92647346Y-97839499D01*
X92868034Y-97990288D01*
X92881684Y-97993052D01*
X92554982Y-98481995D01*
X92440010Y-99060000D01*
X89169990Y-99060000D01*
X89055018Y-98481995D01*
X88727604Y-97991986D01*
X88425311Y-97790000D01*
X88727604Y-97588014D01*
X89055018Y-97098005D01*
X89169990Y-96520000D01*
X89055018Y-95941995D01*
X88727604Y-95451986D01*
X88425311Y-95250000D01*
X88727604Y-95048014D01*
X89055018Y-94558005D01*
X89169990Y-93980000D01*
X89055018Y-93401995D01*
X88727604Y-92911986D01*
X88425311Y-92710000D01*
X88727604Y-92508014D01*
X88908545Y-92237217D01*
X109283347Y-92237217D01*
X109505211Y-92774169D01*
X109915670Y-93185345D01*
X110452234Y-93408146D01*
X111033217Y-93408653D01*
X111570169Y-93186789D01*
X111981345Y-92776330D01*
X112204146Y-92239766D01*
X112204653Y-91658783D01*
X112159814Y-91550263D01*
X126357421Y-91550263D01*
X126476858Y-91848097D01*
X127164618Y-92121507D01*
X127904655Y-92110910D01*
X128539142Y-91848097D01*
X128658579Y-91550263D01*
X127508000Y-90399684D01*
X126357421Y-91550263D01*
X112159814Y-91550263D01*
X111982789Y-91121831D01*
X111572330Y-90710655D01*
X111035766Y-90487854D01*
X110454783Y-90487347D01*
X109917831Y-90709211D01*
X109506655Y-91119670D01*
X109283854Y-91656234D01*
X109283347Y-92237217D01*
X88908545Y-92237217D01*
X89055018Y-92018005D01*
X89169990Y-91440000D01*
X89055018Y-90861995D01*
X88727604Y-90371986D01*
X88425311Y-90170000D01*
X88727604Y-89968014D01*
X88764618Y-89912618D01*
X125642493Y-89912618D01*
X125653090Y-90652655D01*
X125915903Y-91287142D01*
X126213737Y-91406579D01*
X127364316Y-90256000D01*
X127651684Y-90256000D01*
X128802263Y-91406579D01*
X129100097Y-91287142D01*
X129373507Y-90599382D01*
X129362910Y-89859345D01*
X129100097Y-89224858D01*
X128802263Y-89105421D01*
X127651684Y-90256000D01*
X127364316Y-90256000D01*
X126213737Y-89105421D01*
X125915903Y-89224858D01*
X125642493Y-89912618D01*
X88764618Y-89912618D01*
X89055018Y-89478005D01*
X89169990Y-88900000D01*
X89134237Y-88720254D01*
X114908961Y-88720254D01*
X115142901Y-89239841D01*
X115557870Y-89630351D01*
X116003747Y-89815032D01*
X116230400Y-89683309D01*
X116230400Y-88493600D01*
X116433600Y-88493600D01*
X116433600Y-89683309D01*
X116660253Y-89815032D01*
X117106130Y-89630351D01*
X117521099Y-89239841D01*
X117755039Y-88720254D01*
X117623769Y-88493600D01*
X116433600Y-88493600D01*
X116230400Y-88493600D01*
X115040231Y-88493600D01*
X114908961Y-88720254D01*
X89134237Y-88720254D01*
X89055018Y-88321995D01*
X88882462Y-88063746D01*
X114908961Y-88063746D01*
X115040231Y-88290400D01*
X116230400Y-88290400D01*
X116230400Y-87100691D01*
X116433600Y-87100691D01*
X116433600Y-88290400D01*
X117623769Y-88290400D01*
X117755039Y-88063746D01*
X117521099Y-87544159D01*
X117106130Y-87153649D01*
X116660253Y-86968968D01*
X116433600Y-87100691D01*
X116230400Y-87100691D01*
X116003747Y-86968968D01*
X115557870Y-87153649D01*
X115142901Y-87544159D01*
X114908961Y-88063746D01*
X88882462Y-88063746D01*
X88727604Y-87831986D01*
X88425311Y-87630000D01*
X88727604Y-87428014D01*
X89055018Y-86938005D01*
X89169990Y-86360000D01*
X89055018Y-85781995D01*
X88727604Y-85291986D01*
X88425311Y-85090000D01*
X88727604Y-84888014D01*
X89055018Y-84398005D01*
X89169990Y-83820000D01*
X89055018Y-83241995D01*
X88727604Y-82751986D01*
X88425311Y-82550000D01*
X88727604Y-82348014D01*
X88882461Y-82116254D01*
X109320961Y-82116254D01*
X109554901Y-82635841D01*
X109969870Y-83026351D01*
X110415747Y-83211032D01*
X110642400Y-83079309D01*
X110642400Y-81889600D01*
X110845600Y-81889600D01*
X110845600Y-83079309D01*
X111072253Y-83211032D01*
X111518130Y-83026351D01*
X111933099Y-82635841D01*
X112167039Y-82116254D01*
X112035769Y-81889600D01*
X110845600Y-81889600D01*
X110642400Y-81889600D01*
X109452231Y-81889600D01*
X109320961Y-82116254D01*
X88882461Y-82116254D01*
X89055018Y-81858005D01*
X89134236Y-81459746D01*
X109320961Y-81459746D01*
X109452231Y-81686400D01*
X110642400Y-81686400D01*
X110642400Y-80496691D01*
X110845600Y-80496691D01*
X110845600Y-81686400D01*
X112035769Y-81686400D01*
X112167039Y-81459746D01*
X111933099Y-80940159D01*
X111518130Y-80549649D01*
X111072253Y-80364968D01*
X110845600Y-80496691D01*
X110642400Y-80496691D01*
X110415747Y-80364968D01*
X109969870Y-80549649D01*
X109554901Y-80940159D01*
X109320961Y-81459746D01*
X89134236Y-81459746D01*
X89169990Y-81280000D01*
X89055018Y-80701995D01*
X88727604Y-80211986D01*
X88425311Y-80010000D01*
X88727604Y-79808014D01*
X89055018Y-79318005D01*
X89169990Y-78740000D01*
X89126472Y-78521217D01*
X114871347Y-78521217D01*
X115093211Y-79058169D01*
X115503670Y-79469345D01*
X116040234Y-79692146D01*
X116621217Y-79692653D01*
X117158169Y-79470789D01*
X117569345Y-79060330D01*
X117778761Y-78556000D01*
X125634662Y-78556000D01*
X125634662Y-80956000D01*
X125680711Y-81200730D01*
X125825346Y-81425499D01*
X126046034Y-81576288D01*
X126308000Y-81629338D01*
X126573098Y-81629338D01*
X126455545Y-81677910D01*
X125931750Y-82200792D01*
X125647924Y-82884320D01*
X125647278Y-83624433D01*
X125929910Y-84308455D01*
X126452792Y-84832250D01*
X126871413Y-85006077D01*
X126455545Y-85177910D01*
X125931750Y-85700792D01*
X125647924Y-86384320D01*
X125647278Y-87124433D01*
X125929910Y-87808455D01*
X126452792Y-88332250D01*
X126864657Y-88503271D01*
X126476858Y-88663903D01*
X126357421Y-88961737D01*
X127508000Y-90112316D01*
X128658579Y-88961737D01*
X128539142Y-88663903D01*
X128143194Y-88506499D01*
X128560455Y-88334090D01*
X129084250Y-87811208D01*
X129368076Y-87127680D01*
X129368722Y-86387567D01*
X129086090Y-85703545D01*
X128563208Y-85179750D01*
X128144587Y-85005923D01*
X128560455Y-84834090D01*
X129084250Y-84311208D01*
X129368076Y-83627680D01*
X129368722Y-82887567D01*
X129086090Y-82203545D01*
X128563208Y-81679750D01*
X128441803Y-81629338D01*
X128708000Y-81629338D01*
X128952730Y-81583289D01*
X129177499Y-81438654D01*
X129328288Y-81217966D01*
X129381338Y-80956000D01*
X129381338Y-78556000D01*
X129335289Y-78311270D01*
X129190654Y-78086501D01*
X128969966Y-77935712D01*
X128708000Y-77882662D01*
X126308000Y-77882662D01*
X126063270Y-77928711D01*
X125838501Y-78073346D01*
X125687712Y-78294034D01*
X125634662Y-78556000D01*
X117778761Y-78556000D01*
X117792146Y-78523766D01*
X117792653Y-77942783D01*
X117570789Y-77405831D01*
X117160330Y-76994655D01*
X116623766Y-76771854D01*
X116042783Y-76771347D01*
X115505831Y-76993211D01*
X115094655Y-77403670D01*
X114871854Y-77940234D01*
X114871347Y-78521217D01*
X89126472Y-78521217D01*
X89055018Y-78161995D01*
X88727604Y-77671986D01*
X88425311Y-77470000D01*
X88727604Y-77268014D01*
X89055018Y-76778005D01*
X89112461Y-76489217D01*
X109283347Y-76489217D01*
X109505211Y-77026169D01*
X109915670Y-77437345D01*
X110452234Y-77660146D01*
X111033217Y-77660653D01*
X111570169Y-77438789D01*
X111981345Y-77028330D01*
X112204146Y-76491766D01*
X112204653Y-75910783D01*
X111982789Y-75373831D01*
X111572330Y-74962655D01*
X111035766Y-74739854D01*
X110454783Y-74739347D01*
X109917831Y-74961211D01*
X109506655Y-75371670D01*
X109283854Y-75908234D01*
X109283347Y-76489217D01*
X89112461Y-76489217D01*
X89169990Y-76200000D01*
X89055018Y-75621995D01*
X88727604Y-75131986D01*
X88422671Y-74928236D01*
X88504027Y-74891832D01*
X88908897Y-74463589D01*
X89102532Y-73996093D01*
X88971458Y-73761600D01*
X87731600Y-73761600D01*
X87731600Y-73781600D01*
X87528400Y-73781600D01*
X87528400Y-73761600D01*
X86288542Y-73761600D01*
X86157468Y-73996093D01*
X86351103Y-74463589D01*
X86755973Y-74891832D01*
X86837329Y-74928236D01*
X86532396Y-75131986D01*
X86204982Y-75621995D01*
X86090010Y-76200000D01*
X84160400Y-76200000D01*
X84160679Y-75881077D01*
X83916027Y-75288973D01*
X83490769Y-74862971D01*
X83519974Y-74773659D01*
X82550000Y-73803684D01*
X81580026Y-74773659D01*
X81609402Y-74863493D01*
X81185565Y-75286590D01*
X80939880Y-75878266D01*
X80939321Y-76518923D01*
X81183973Y-77111027D01*
X81542549Y-77470229D01*
X81185565Y-77826590D01*
X80939880Y-78418266D01*
X80939321Y-79058923D01*
X81183973Y-79651027D01*
X81542549Y-80010229D01*
X81185565Y-80366590D01*
X80939880Y-80958266D01*
X80939732Y-81127600D01*
X66380534Y-81127600D01*
X66380679Y-80961077D01*
X66136027Y-80368973D01*
X65777451Y-80009771D01*
X66134435Y-79653410D01*
X66380120Y-79061734D01*
X66380679Y-78421077D01*
X66136027Y-77828973D01*
X65777451Y-77469771D01*
X66134435Y-77113410D01*
X66380120Y-76521734D01*
X66380679Y-75881077D01*
X66136027Y-75288973D01*
X65777451Y-74929771D01*
X66134435Y-74573410D01*
X66380120Y-73981734D01*
X66380648Y-73376222D01*
X80932758Y-73376222D01*
X80947267Y-74016715D01*
X81164460Y-74541068D01*
X81436341Y-74629974D01*
X82406316Y-73660000D01*
X82693684Y-73660000D01*
X83663659Y-74629974D01*
X83935540Y-74541068D01*
X84167242Y-73943778D01*
X84152733Y-73303285D01*
X83935540Y-72778932D01*
X83663659Y-72690026D01*
X82693684Y-73660000D01*
X82406316Y-73660000D01*
X81436341Y-72690026D01*
X81164460Y-72778932D01*
X80932758Y-73376222D01*
X66380648Y-73376222D01*
X66380679Y-73341077D01*
X66136027Y-72748973D01*
X65777451Y-72389771D01*
X66134435Y-72033410D01*
X66380120Y-71441734D01*
X66380679Y-70801077D01*
X66136027Y-70208973D01*
X65710769Y-69782971D01*
X65739974Y-69693659D01*
X64770000Y-68723684D01*
X63800026Y-69693659D01*
X63829402Y-69783493D01*
X63405565Y-70206590D01*
X63159880Y-70798266D01*
X63159321Y-71438923D01*
X61166552Y-71438923D01*
X61229990Y-71120000D01*
X61115018Y-70541995D01*
X60787604Y-70051986D01*
X60482671Y-69848236D01*
X60564027Y-69811832D01*
X60968897Y-69383589D01*
X61162532Y-68916093D01*
X61031458Y-68681600D01*
X59791600Y-68681600D01*
X59791600Y-68701600D01*
X59588400Y-68701600D01*
X59588400Y-68681600D01*
X58348542Y-68681600D01*
X58217468Y-68916093D01*
X58411103Y-69383589D01*
X58815973Y-69811832D01*
X58897329Y-69848236D01*
X58592396Y-70051986D01*
X58264982Y-70541995D01*
X58150010Y-71120000D01*
X58264982Y-71698005D01*
X58592396Y-72188014D01*
X58894689Y-72390000D01*
X58592396Y-72591986D01*
X58264982Y-73081995D01*
X58150010Y-73660000D01*
X58264982Y-74238005D01*
X58592396Y-74728014D01*
X58894689Y-74930000D01*
X58592396Y-75131986D01*
X58264982Y-75621995D01*
X58150010Y-76200000D01*
X58264982Y-76778005D01*
X58592396Y-77268014D01*
X58894689Y-77470000D01*
X58592396Y-77671986D01*
X58264982Y-78161995D01*
X58150010Y-78740000D01*
X58264982Y-79318005D01*
X58592396Y-79808014D01*
X58894689Y-80010000D01*
X58592396Y-80211986D01*
X58264982Y-80701995D01*
X58150010Y-81280000D01*
X58264982Y-81858005D01*
X58592396Y-82348014D01*
X58894689Y-82550000D01*
X58592396Y-82751986D01*
X58264982Y-83241995D01*
X58150010Y-83820000D01*
X58264982Y-84398005D01*
X58592396Y-84888014D01*
X58894689Y-85090000D01*
X58592396Y-85291986D01*
X58264982Y-85781995D01*
X58150010Y-86360000D01*
X58264982Y-86938005D01*
X58592396Y-87428014D01*
X58894689Y-87630000D01*
X58592396Y-87831986D01*
X58264982Y-88321995D01*
X58150010Y-88900000D01*
X58264982Y-89478005D01*
X58592396Y-89968014D01*
X58894689Y-90170000D01*
X58592396Y-90371986D01*
X58264982Y-90861995D01*
X58150010Y-91440000D01*
X58264982Y-92018005D01*
X58592396Y-92508014D01*
X58894689Y-92710000D01*
X58592396Y-92911986D01*
X58532184Y-93002100D01*
X51834129Y-93002100D01*
X51528742Y-92875292D01*
X51089186Y-92874909D01*
X50682942Y-93042765D01*
X50371858Y-93353307D01*
X50203292Y-93759258D01*
X50202909Y-94198814D01*
X44602400Y-94198814D01*
X44602400Y-68328433D01*
X47669278Y-68328433D01*
X47951910Y-69012455D01*
X48474792Y-69536250D01*
X48893413Y-69710077D01*
X48477545Y-69881910D01*
X47953750Y-70404792D01*
X47669924Y-71088320D01*
X47669278Y-71828433D01*
X47951910Y-72512455D01*
X48474792Y-73036250D01*
X49158320Y-73320076D01*
X49898433Y-73320722D01*
X50582455Y-73038090D01*
X51106250Y-72515208D01*
X51390076Y-71831680D01*
X51390722Y-71091567D01*
X51108090Y-70407545D01*
X50585208Y-69883750D01*
X50166587Y-69709923D01*
X50582455Y-69538090D01*
X51106250Y-69015208D01*
X51390076Y-68331680D01*
X51390722Y-67591567D01*
X51108090Y-66907545D01*
X50585208Y-66383750D01*
X50173343Y-66212729D01*
X50561142Y-66052097D01*
X50680579Y-65754263D01*
X49530000Y-64603684D01*
X48379421Y-65754263D01*
X48498858Y-66052097D01*
X48894806Y-66209501D01*
X48477545Y-66381910D01*
X47953750Y-66904792D01*
X47669924Y-67588320D01*
X47669278Y-68328433D01*
X44602400Y-68328433D01*
X44602400Y-64116618D01*
X47664493Y-64116618D01*
X47675090Y-64856655D01*
X47937903Y-65491142D01*
X48235737Y-65610579D01*
X49386316Y-64460000D01*
X49673684Y-64460000D01*
X50824263Y-65610579D01*
X51122097Y-65491142D01*
X51241812Y-65190000D01*
X58166662Y-65190000D01*
X58166662Y-66890000D01*
X58212711Y-67134730D01*
X58357346Y-67359499D01*
X58578034Y-67510288D01*
X58649096Y-67524679D01*
X58411103Y-67776411D01*
X58217468Y-68243907D01*
X58348542Y-68478400D01*
X59588400Y-68478400D01*
X59588400Y-68458400D01*
X59791600Y-68458400D01*
X59791600Y-68478400D01*
X61031458Y-68478400D01*
X61133289Y-68296222D01*
X63152758Y-68296222D01*
X63167267Y-68936715D01*
X63384460Y-69461068D01*
X63656341Y-69549974D01*
X64626316Y-68580000D01*
X64913684Y-68580000D01*
X65883659Y-69549974D01*
X66155540Y-69461068D01*
X66387242Y-68863778D01*
X66372733Y-68223285D01*
X66155540Y-67698932D01*
X65883659Y-67610026D01*
X64913684Y-68580000D01*
X64626316Y-68580000D01*
X63656341Y-67610026D01*
X63384460Y-67698932D01*
X63152758Y-68296222D01*
X61133289Y-68296222D01*
X61162532Y-68243907D01*
X60968897Y-67776411D01*
X60733102Y-67527003D01*
X60784730Y-67517289D01*
X61009499Y-67372654D01*
X61160288Y-67151966D01*
X61213338Y-66890000D01*
X61213338Y-66358923D01*
X63159321Y-66358923D01*
X63403973Y-66951027D01*
X63829231Y-67377029D01*
X63800026Y-67466341D01*
X64770000Y-68436316D01*
X65739974Y-67466341D01*
X65710598Y-67376507D01*
X66134435Y-66953410D01*
X66380120Y-66361734D01*
X66380122Y-66358923D01*
X80939321Y-66358923D01*
X81183973Y-66951027D01*
X81542549Y-67310229D01*
X81185565Y-67666590D01*
X80939880Y-68258266D01*
X80939321Y-68898923D01*
X81183973Y-69491027D01*
X81542549Y-69850229D01*
X81185565Y-70206590D01*
X80939880Y-70798266D01*
X80939321Y-71438923D01*
X81183973Y-72031027D01*
X81609231Y-72457029D01*
X81580026Y-72546341D01*
X82550000Y-73516316D01*
X83519974Y-72546341D01*
X83490598Y-72456507D01*
X83914435Y-72033410D01*
X84160120Y-71441734D01*
X84160679Y-70801077D01*
X83916027Y-70208973D01*
X83557451Y-69849771D01*
X83914435Y-69493410D01*
X84160120Y-68901734D01*
X84160400Y-68580000D01*
X86090010Y-68580000D01*
X86204982Y-69158005D01*
X86532396Y-69648014D01*
X86834689Y-69850000D01*
X86532396Y-70051986D01*
X86204982Y-70541995D01*
X86090010Y-71120000D01*
X86204982Y-71698005D01*
X86532396Y-72188014D01*
X86837329Y-72391764D01*
X86755973Y-72428168D01*
X86351103Y-72856411D01*
X86157468Y-73323907D01*
X86288542Y-73558400D01*
X87528400Y-73558400D01*
X87528400Y-73538400D01*
X87731600Y-73538400D01*
X87731600Y-73558400D01*
X88971458Y-73558400D01*
X89102532Y-73323907D01*
X88908897Y-72856411D01*
X88504027Y-72428168D01*
X88422671Y-72391764D01*
X88727604Y-72188014D01*
X89055018Y-71698005D01*
X89169990Y-71120000D01*
X89055018Y-70541995D01*
X88727604Y-70051986D01*
X88425311Y-69850000D01*
X88727604Y-69648014D01*
X89055018Y-69158005D01*
X89169990Y-68580000D01*
X89055018Y-68001995D01*
X88729218Y-67514401D01*
X88949499Y-67372654D01*
X89100288Y-67151966D01*
X89153338Y-66890000D01*
X89153338Y-66011389D01*
X109283600Y-66011389D01*
X109283600Y-66068611D01*
X109394766Y-66627482D01*
X109711341Y-67101270D01*
X110185129Y-67417845D01*
X110744000Y-67529011D01*
X111302871Y-67417845D01*
X111776659Y-67101270D01*
X112093234Y-66627482D01*
X112204400Y-66068611D01*
X112204400Y-66011389D01*
X112093234Y-65452518D01*
X111776659Y-64978730D01*
X111302871Y-64662155D01*
X110744000Y-64550989D01*
X110185129Y-64662155D01*
X109711341Y-64978730D01*
X109394766Y-65452518D01*
X109283600Y-66011389D01*
X89153338Y-66011389D01*
X89153338Y-65190000D01*
X89107289Y-64945270D01*
X88962654Y-64720501D01*
X88741966Y-64569712D01*
X88480000Y-64516662D01*
X86780000Y-64516662D01*
X86535270Y-64562711D01*
X86310501Y-64707346D01*
X86159712Y-64928034D01*
X86106662Y-65190000D01*
X86106662Y-66890000D01*
X86152711Y-67134730D01*
X86297346Y-67359499D01*
X86518034Y-67510288D01*
X86531684Y-67513052D01*
X86204982Y-68001995D01*
X86090010Y-68580000D01*
X84160400Y-68580000D01*
X84160679Y-68261077D01*
X83916027Y-67668973D01*
X83557451Y-67309771D01*
X83914435Y-66953410D01*
X84160120Y-66361734D01*
X84160679Y-65721077D01*
X83916027Y-65128973D01*
X83463410Y-64675565D01*
X82871734Y-64429880D01*
X82231077Y-64429321D01*
X81638973Y-64673973D01*
X81185565Y-65126590D01*
X80939880Y-65718266D01*
X80939321Y-66358923D01*
X66380122Y-66358923D01*
X66380679Y-65721077D01*
X66136027Y-65128973D01*
X65683410Y-64675565D01*
X65091734Y-64429880D01*
X64451077Y-64429321D01*
X63858973Y-64673973D01*
X63405565Y-65126590D01*
X63159880Y-65718266D01*
X63159321Y-66358923D01*
X61213338Y-66358923D01*
X61213338Y-65190000D01*
X61167289Y-64945270D01*
X61022654Y-64720501D01*
X60801966Y-64569712D01*
X60540000Y-64516662D01*
X58840000Y-64516662D01*
X58595270Y-64562711D01*
X58370501Y-64707346D01*
X58219712Y-64928034D01*
X58166662Y-65190000D01*
X51241812Y-65190000D01*
X51395507Y-64803382D01*
X51384910Y-64063345D01*
X51122097Y-63428858D01*
X50824263Y-63309421D01*
X49673684Y-64460000D01*
X49386316Y-64460000D01*
X48235737Y-63309421D01*
X47937903Y-63428858D01*
X47664493Y-64116618D01*
X44602400Y-64116618D01*
X44602400Y-59760000D01*
X47656662Y-59760000D01*
X47656662Y-62160000D01*
X47702711Y-62404730D01*
X47847346Y-62629499D01*
X48068034Y-62780288D01*
X48330000Y-62833338D01*
X48582305Y-62833338D01*
X48498858Y-62867903D01*
X48379421Y-63165737D01*
X49530000Y-64316316D01*
X50680579Y-63165737D01*
X50561142Y-62867903D01*
X50474194Y-62833338D01*
X50730000Y-62833338D01*
X50974730Y-62787289D01*
X51199499Y-62642654D01*
X51350288Y-62421966D01*
X51374986Y-62300000D01*
X125761662Y-62300000D01*
X125761662Y-64700000D01*
X125807711Y-64944730D01*
X125952346Y-65169499D01*
X126173034Y-65320288D01*
X126435000Y-65373338D01*
X126700098Y-65373338D01*
X126582545Y-65421910D01*
X126058750Y-65944792D01*
X125774924Y-66628320D01*
X125774278Y-67368433D01*
X126056910Y-68052455D01*
X126579792Y-68576250D01*
X126998413Y-68750077D01*
X126582545Y-68921910D01*
X126058750Y-69444792D01*
X125774924Y-70128320D01*
X125774278Y-70868433D01*
X126056910Y-71552455D01*
X126579792Y-72076250D01*
X126998413Y-72250077D01*
X126582545Y-72421910D01*
X126058750Y-72944792D01*
X125774924Y-73628320D01*
X125774278Y-74368433D01*
X126056910Y-75052455D01*
X126579792Y-75576250D01*
X127263320Y-75860076D01*
X128003433Y-75860722D01*
X128687455Y-75578090D01*
X129211250Y-75055208D01*
X129495076Y-74371680D01*
X129495722Y-73631567D01*
X129213090Y-72947545D01*
X128690208Y-72423750D01*
X128271587Y-72249923D01*
X128687455Y-72078090D01*
X129211250Y-71555208D01*
X129495076Y-70871680D01*
X129495722Y-70131567D01*
X129213090Y-69447545D01*
X128690208Y-68923750D01*
X128271587Y-68749923D01*
X128687455Y-68578090D01*
X129211250Y-68055208D01*
X129495076Y-67371680D01*
X129495722Y-66631567D01*
X129213090Y-65947545D01*
X128690208Y-65423750D01*
X128568803Y-65373338D01*
X128835000Y-65373338D01*
X129079730Y-65327289D01*
X129304499Y-65182654D01*
X129455288Y-64961966D01*
X129508338Y-64700000D01*
X129508338Y-62300000D01*
X129462289Y-62055270D01*
X129317654Y-61830501D01*
X129096966Y-61679712D01*
X128835000Y-61626662D01*
X126435000Y-61626662D01*
X126190270Y-61672711D01*
X125965501Y-61817346D01*
X125814712Y-62038034D01*
X125761662Y-62300000D01*
X51374986Y-62300000D01*
X51403338Y-62160000D01*
X51403338Y-60614217D01*
X86169347Y-60614217D01*
X86391211Y-61151169D01*
X86801670Y-61562345D01*
X87338234Y-61785146D01*
X87919217Y-61785653D01*
X88456169Y-61563789D01*
X88867345Y-61153330D01*
X89090146Y-60616766D01*
X89090400Y-60325000D01*
X96300989Y-60325000D01*
X96412155Y-60883871D01*
X96728730Y-61357659D01*
X97202518Y-61674234D01*
X97761389Y-61785400D01*
X97818611Y-61785400D01*
X98377482Y-61674234D01*
X98851270Y-61357659D01*
X99167845Y-60883871D01*
X99279011Y-60325000D01*
X99167845Y-59766129D01*
X98851270Y-59292341D01*
X98377482Y-58975766D01*
X97818611Y-58864600D01*
X97761389Y-58864600D01*
X97202518Y-58975766D01*
X96728730Y-59292341D01*
X96412155Y-59766129D01*
X96300989Y-60325000D01*
X89090400Y-60325000D01*
X89090653Y-60035783D01*
X88868789Y-59498831D01*
X88458330Y-59087655D01*
X87921766Y-58864854D01*
X87340783Y-58864347D01*
X86803831Y-59086211D01*
X86392655Y-59496670D01*
X86169854Y-60033234D01*
X86169347Y-60614217D01*
X51403338Y-60614217D01*
X51403338Y-59760000D01*
X51357289Y-59515270D01*
X51212654Y-59290501D01*
X50991966Y-59139712D01*
X50730000Y-59086662D01*
X48330000Y-59086662D01*
X48085270Y-59132711D01*
X47860501Y-59277346D01*
X47709712Y-59498034D01*
X47656662Y-59760000D01*
X44602400Y-59760000D01*
X44602400Y-56606814D01*
X78650909Y-56606814D01*
X78818765Y-57013058D01*
X79129307Y-57324142D01*
X79535258Y-57492708D01*
X79974814Y-57493091D01*
X80282641Y-57365900D01*
X84309871Y-57365900D01*
X84615258Y-57492708D01*
X85054814Y-57493091D01*
X85461058Y-57325235D01*
X85772142Y-57014693D01*
X85940708Y-56608742D01*
X85941091Y-56169186D01*
X85773235Y-55762942D01*
X85462693Y-55451858D01*
X85056742Y-55283292D01*
X84617186Y-55282909D01*
X84309359Y-55410100D01*
X80282129Y-55410100D01*
X79976742Y-55283292D01*
X79537186Y-55282909D01*
X79130942Y-55450765D01*
X78819858Y-55761307D01*
X78651292Y-56167258D01*
X78650909Y-56606814D01*
X44602400Y-56606814D01*
X44602400Y-51524904D01*
X47138966Y-51524904D01*
X47695055Y-52870741D01*
X48723843Y-53901326D01*
X50068707Y-54459763D01*
X51524904Y-54461034D01*
X52870741Y-53904945D01*
X53901326Y-52876157D01*
X54459763Y-51531293D01*
X54460168Y-51066700D01*
X61639600Y-51066700D01*
X61639600Y-52131361D01*
X61740140Y-52374086D01*
X61925913Y-52559860D01*
X62168638Y-52660400D01*
X63233300Y-52660400D01*
X63398400Y-52495300D01*
X63398400Y-50901600D01*
X61804700Y-50901600D01*
X61639600Y-51066700D01*
X54460168Y-51066700D01*
X54461034Y-50075096D01*
X54210451Y-49468639D01*
X61639600Y-49468639D01*
X61639600Y-50533300D01*
X61804700Y-50698400D01*
X63398400Y-50698400D01*
X63398400Y-49104700D01*
X63601600Y-49104700D01*
X63601600Y-50698400D01*
X63621600Y-50698400D01*
X63621600Y-50901600D01*
X63601600Y-50901600D01*
X63601600Y-52495300D01*
X63766700Y-52660400D01*
X64831362Y-52660400D01*
X65074087Y-52559860D01*
X65259860Y-52374086D01*
X65360400Y-52131361D01*
X65360400Y-52094263D01*
X65849421Y-52094263D01*
X65968858Y-52392097D01*
X66656618Y-52665507D01*
X67396655Y-52654910D01*
X68031142Y-52392097D01*
X68150579Y-52094263D01*
X69349421Y-52094263D01*
X69468858Y-52392097D01*
X70156618Y-52665507D01*
X70896655Y-52654910D01*
X71531142Y-52392097D01*
X71650579Y-52094263D01*
X72849421Y-52094263D01*
X72968858Y-52392097D01*
X73656618Y-52665507D01*
X74396655Y-52654910D01*
X75031142Y-52392097D01*
X75150579Y-52094263D01*
X74000000Y-50943684D01*
X72849421Y-52094263D01*
X71650579Y-52094263D01*
X70500000Y-50943684D01*
X69349421Y-52094263D01*
X68150579Y-52094263D01*
X67000000Y-50943684D01*
X65849421Y-52094263D01*
X65360400Y-52094263D01*
X65360400Y-51716460D01*
X65407903Y-51831142D01*
X65705737Y-51950579D01*
X66856316Y-50800000D01*
X67143684Y-50800000D01*
X68294263Y-51950579D01*
X68592097Y-51831142D01*
X68746756Y-51442099D01*
X68907903Y-51831142D01*
X69205737Y-51950579D01*
X70356316Y-50800000D01*
X70643684Y-50800000D01*
X71794263Y-51950579D01*
X72092097Y-51831142D01*
X72246756Y-51442099D01*
X72407903Y-51831142D01*
X72705737Y-51950579D01*
X73856316Y-50800000D01*
X74143684Y-50800000D01*
X75294263Y-51950579D01*
X75592097Y-51831142D01*
X75865507Y-51143382D01*
X75854910Y-50403345D01*
X75592097Y-49768858D01*
X75294263Y-49649421D01*
X74143684Y-50800000D01*
X73856316Y-50800000D01*
X72705737Y-49649421D01*
X72407903Y-49768858D01*
X72253244Y-50157901D01*
X72092097Y-49768858D01*
X71794263Y-49649421D01*
X70643684Y-50800000D01*
X70356316Y-50800000D01*
X69205737Y-49649421D01*
X68907903Y-49768858D01*
X68753244Y-50157901D01*
X68592097Y-49768858D01*
X68294263Y-49649421D01*
X67143684Y-50800000D01*
X66856316Y-50800000D01*
X65705737Y-49649421D01*
X65407903Y-49768858D01*
X65360400Y-49888351D01*
X65360400Y-49505737D01*
X65849421Y-49505737D01*
X67000000Y-50656316D01*
X68150579Y-49505737D01*
X69349421Y-49505737D01*
X70500000Y-50656316D01*
X71650579Y-49505737D01*
X72849421Y-49505737D01*
X74000000Y-50656316D01*
X75056316Y-49600000D01*
X81946662Y-49600000D01*
X81946662Y-52000000D01*
X81992711Y-52244730D01*
X82137346Y-52469499D01*
X82358034Y-52620288D01*
X82620000Y-52673338D01*
X85020000Y-52673338D01*
X85264730Y-52627289D01*
X85489499Y-52482654D01*
X85640288Y-52261966D01*
X85693338Y-52000000D01*
X85693338Y-51734902D01*
X85741910Y-51852455D01*
X86264792Y-52376250D01*
X86948320Y-52660076D01*
X87688433Y-52660722D01*
X88372455Y-52378090D01*
X88896250Y-51855208D01*
X89070077Y-51436587D01*
X89241910Y-51852455D01*
X89764792Y-52376250D01*
X90448320Y-52660076D01*
X91188433Y-52660722D01*
X91872455Y-52378090D01*
X92396250Y-51855208D01*
X92570077Y-51436587D01*
X92741910Y-51852455D01*
X93264792Y-52376250D01*
X93948320Y-52660076D01*
X94688433Y-52660722D01*
X95372455Y-52378090D01*
X95896250Y-51855208D01*
X96180076Y-51171680D01*
X96180722Y-50431567D01*
X95898090Y-49747545D01*
X95750803Y-49600000D01*
X102266662Y-49600000D01*
X102266662Y-52000000D01*
X102312711Y-52244730D01*
X102457346Y-52469499D01*
X102678034Y-52620288D01*
X102940000Y-52673338D01*
X105340000Y-52673338D01*
X105584730Y-52627289D01*
X105809499Y-52482654D01*
X105960288Y-52261966D01*
X106013338Y-52000000D01*
X106013338Y-51734902D01*
X106061910Y-51852455D01*
X106584792Y-52376250D01*
X107268320Y-52660076D01*
X108008433Y-52660722D01*
X108692455Y-52378090D01*
X109216250Y-51855208D01*
X109390077Y-51436587D01*
X109561910Y-51852455D01*
X110084792Y-52376250D01*
X110768320Y-52660076D01*
X111508433Y-52660722D01*
X112192455Y-52378090D01*
X112716250Y-51855208D01*
X112890077Y-51436587D01*
X113061910Y-51852455D01*
X113584792Y-52376250D01*
X114268320Y-52660076D01*
X115008433Y-52660722D01*
X115692455Y-52378090D01*
X116216250Y-51855208D01*
X116353404Y-51524904D01*
X123338966Y-51524904D01*
X123895055Y-52870741D01*
X124923843Y-53901326D01*
X126268707Y-54459763D01*
X127724904Y-54461034D01*
X129070741Y-53904945D01*
X130101326Y-52876157D01*
X130659763Y-51531293D01*
X130661034Y-50075096D01*
X130104945Y-48729259D01*
X129076157Y-47698674D01*
X127731293Y-47140237D01*
X126275096Y-47138966D01*
X124929259Y-47695055D01*
X123898674Y-48723843D01*
X123340237Y-50068707D01*
X123338966Y-51524904D01*
X116353404Y-51524904D01*
X116500076Y-51171680D01*
X116500722Y-50431567D01*
X116218090Y-49747545D01*
X115695208Y-49223750D01*
X115011680Y-48939924D01*
X114271567Y-48939278D01*
X113587545Y-49221910D01*
X113063750Y-49744792D01*
X112889923Y-50163413D01*
X112718090Y-49747545D01*
X112195208Y-49223750D01*
X111511680Y-48939924D01*
X110771567Y-48939278D01*
X110087545Y-49221910D01*
X109563750Y-49744792D01*
X109389923Y-50163413D01*
X109218090Y-49747545D01*
X108695208Y-49223750D01*
X108011680Y-48939924D01*
X107271567Y-48939278D01*
X106587545Y-49221910D01*
X106063750Y-49744792D01*
X106013338Y-49866197D01*
X106013338Y-49600000D01*
X105967289Y-49355270D01*
X105822654Y-49130501D01*
X105601966Y-48979712D01*
X105340000Y-48926662D01*
X102940000Y-48926662D01*
X102695270Y-48972711D01*
X102470501Y-49117346D01*
X102319712Y-49338034D01*
X102266662Y-49600000D01*
X95750803Y-49600000D01*
X95375208Y-49223750D01*
X94691680Y-48939924D01*
X93951567Y-48939278D01*
X93267545Y-49221910D01*
X92743750Y-49744792D01*
X92569923Y-50163413D01*
X92398090Y-49747545D01*
X91875208Y-49223750D01*
X91191680Y-48939924D01*
X90451567Y-48939278D01*
X89767545Y-49221910D01*
X89243750Y-49744792D01*
X89069923Y-50163413D01*
X88898090Y-49747545D01*
X88375208Y-49223750D01*
X87691680Y-48939924D01*
X86951567Y-48939278D01*
X86267545Y-49221910D01*
X85743750Y-49744792D01*
X85693338Y-49866197D01*
X85693338Y-49600000D01*
X85647289Y-49355270D01*
X85502654Y-49130501D01*
X85281966Y-48979712D01*
X85020000Y-48926662D01*
X82620000Y-48926662D01*
X82375270Y-48972711D01*
X82150501Y-49117346D01*
X81999712Y-49338034D01*
X81946662Y-49600000D01*
X75056316Y-49600000D01*
X75150579Y-49505737D01*
X75031142Y-49207903D01*
X74343382Y-48934493D01*
X73603345Y-48945090D01*
X72968858Y-49207903D01*
X72849421Y-49505737D01*
X71650579Y-49505737D01*
X71531142Y-49207903D01*
X70843382Y-48934493D01*
X70103345Y-48945090D01*
X69468858Y-49207903D01*
X69349421Y-49505737D01*
X68150579Y-49505737D01*
X68031142Y-49207903D01*
X67343382Y-48934493D01*
X66603345Y-48945090D01*
X65968858Y-49207903D01*
X65849421Y-49505737D01*
X65360400Y-49505737D01*
X65360400Y-49468639D01*
X65259860Y-49225914D01*
X65074087Y-49040140D01*
X64831362Y-48939600D01*
X63766700Y-48939600D01*
X63601600Y-49104700D01*
X63398400Y-49104700D01*
X63233300Y-48939600D01*
X62168638Y-48939600D01*
X61925913Y-49040140D01*
X61740140Y-49225914D01*
X61639600Y-49468639D01*
X54210451Y-49468639D01*
X53904945Y-48729259D01*
X52876157Y-47698674D01*
X51531293Y-47140237D01*
X50075096Y-47138966D01*
X48729259Y-47695055D01*
X47698674Y-48723843D01*
X47140237Y-50068707D01*
X47138966Y-51524904D01*
X44602400Y-51524904D01*
X44602400Y-44602400D01*
X133197600Y-44602400D01*
X133197600Y-120497600D01*
M02*
