G04 #@! TF.GenerationSoftware,KiCad,Pcbnew,(5.0.0-rc2-dev-179-gab3780148)*
G04 #@! TF.CreationDate,2018-03-14T15:03:32-05:00*
G04 #@! TF.ProjectId,weather_station,776561746865725F73746174696F6E2E,rev?*
G04 #@! TF.SameCoordinates,Original*
G04 #@! TF.FileFunction,Soldermask,Bot*
G04 #@! TF.FilePolarity,Negative*
%FSLAX46Y46*%
G04 Gerber Fmt 4.6, Leading zero omitted, Abs format (unit mm)*
G04 Created by KiCad (PCBNEW (5.0.0-rc2-dev-179-gab3780148)) date 03/14/18 15:03:32*
%MOMM*%
%LPD*%
G01*
G04 APERTURE LIST*
%ADD10R,2.100000X2.100000*%
%ADD11O,2.100000X2.100000*%
%ADD12R,2.800000X2.800000*%
%ADD13C,2.800000*%
%ADD14C,6.400000*%
%ADD15C,2.000000*%
%ADD16O,2.000000X2.000000*%
%ADD17C,2.300000*%
G04 APERTURE END LIST*
D10*
X87630000Y-66040000D03*
D11*
X87630000Y-68580000D03*
X87630000Y-71120000D03*
X87630000Y-73660000D03*
X87630000Y-76200000D03*
X87630000Y-78740000D03*
X87630000Y-81280000D03*
X87630000Y-83820000D03*
X87630000Y-86360000D03*
X87630000Y-88900000D03*
X87630000Y-91440000D03*
X87630000Y-93980000D03*
X87630000Y-96520000D03*
X87630000Y-99060000D03*
X87630000Y-101600000D03*
X87630000Y-104140000D03*
X87630000Y-106680000D03*
X87630000Y-109220000D03*
D12*
X127635000Y-63500000D03*
D13*
X127635000Y-67000000D03*
X127635000Y-70500000D03*
X127635000Y-74000000D03*
D12*
X49530000Y-60960000D03*
D13*
X49530000Y-64460000D03*
X49530000Y-67960000D03*
X49530000Y-71460000D03*
D10*
X59690000Y-66040000D03*
D11*
X59690000Y-68580000D03*
X59690000Y-71120000D03*
X59690000Y-73660000D03*
X59690000Y-76200000D03*
X59690000Y-78740000D03*
X59690000Y-81280000D03*
X59690000Y-83820000D03*
X59690000Y-86360000D03*
X59690000Y-88900000D03*
X59690000Y-91440000D03*
X59690000Y-93980000D03*
X59690000Y-96520000D03*
X59690000Y-99060000D03*
X59690000Y-101600000D03*
X59690000Y-104140000D03*
X59690000Y-106680000D03*
X59690000Y-109220000D03*
D12*
X63500000Y-50800000D03*
D13*
X67000000Y-50800000D03*
X70500000Y-50800000D03*
X74000000Y-50800000D03*
D12*
X83820000Y-50800000D03*
D13*
X87320000Y-50800000D03*
X90820000Y-50800000D03*
X94320000Y-50800000D03*
D12*
X104140000Y-50800000D03*
D13*
X107640000Y-50800000D03*
X111140000Y-50800000D03*
X114640000Y-50800000D03*
D14*
X127000000Y-114300000D03*
X50800000Y-114300000D03*
X50800000Y-50800000D03*
X127000000Y-50800000D03*
D15*
X116332000Y-78232000D03*
D16*
X116332000Y-88392000D03*
D15*
X110744000Y-91948000D03*
D16*
X110744000Y-81788000D03*
D15*
X110744000Y-76200000D03*
D16*
X110744000Y-66040000D03*
D15*
X87630000Y-60325000D03*
D16*
X97790000Y-60325000D03*
D10*
X93980000Y-96520000D03*
D11*
X93980000Y-99060000D03*
X93980000Y-101600000D03*
X93980000Y-104140000D03*
X93980000Y-106680000D03*
X93980000Y-109220000D03*
D17*
X64770000Y-66040000D03*
X64770000Y-68580000D03*
X64770000Y-71120000D03*
X64770000Y-73660000D03*
X64770000Y-76200000D03*
X64770000Y-78740000D03*
X64770000Y-81280000D03*
X64770000Y-83820000D03*
X64770000Y-86360000D03*
X64770000Y-88900000D03*
X64770000Y-91440000D03*
X64770000Y-93980000D03*
X64770000Y-96520000D03*
X64770000Y-99060000D03*
X64770000Y-101600000D03*
X64770000Y-104140000D03*
X64770000Y-106680000D03*
X64770000Y-109220000D03*
X82550000Y-66040000D03*
X82550000Y-68580000D03*
X82550000Y-71120000D03*
X82550000Y-73660000D03*
X82550000Y-76200000D03*
X82550000Y-78740000D03*
X82550000Y-81280000D03*
X82550000Y-83820000D03*
X82550000Y-86360000D03*
X82550000Y-88900000D03*
X82550000Y-91440000D03*
X82550000Y-93980000D03*
X82550000Y-96520000D03*
X82550000Y-99060000D03*
X82550000Y-101600000D03*
X82550000Y-104140000D03*
X82550000Y-106680000D03*
X82550000Y-109220000D03*
D12*
X127508000Y-79756000D03*
D13*
X127508000Y-83256000D03*
X127508000Y-86756000D03*
X127508000Y-90256000D03*
M02*
